<?xml version="1.0" encoding="iso-8859-1"?>
<!-- Generator: Adobe Illustrator 19.0.0, SVG Export Plug-In . SVG Version: 6.00 Build 0)  -->
<svg version="1.1" id="Capa_1" xmlns="http://www.w3.org/2000/svg" xmlns:xlink="http://www.w3.org/1999/xlink" x="0px" y="0px"
	 viewBox="0 0 511.344 511.344" style="enable-background:new 0 0 511.344 511.344;" xml:space="preserve">
<polygon style="fill:#656D78;" points="463.405,83.893 359.539,83.893 359.539,59.923 455.416,59.923 "/>
<polygon style="fill:#CCD1D9;" points="135.825,147.811 87.887,211.729 87.887,195.749 119.846,139.82 119.846,83.893 
	135.825,83.893 "/>
<polygon style="fill:#FFFFFF;" points="95.877,195.749 127.836,139.82 127.836,83.893 119.846,83.893 119.846,139.82 
	87.887,195.749 87.887,211.729 95.877,201.074 "/>
<polygon style="fill:#656D78;" points="47.938,83.893 151.805,83.893 151.805,59.923 55.928,59.923 "/>
<g style="opacity:0.3;">
	<polygon style="fill:#FFFFFF;" points="55.928,59.923 47.938,83.893 55.928,83.893 63.918,59.923 	"/>
</g>
<g style="opacity:0.2;">
	<polygon points="455.416,59.923 463.405,83.893 455.416,83.893 447.426,59.923 	"/>
</g>
<g>
	<rect x="151.803" y="51.932" style="fill:#4A89DC;" width="23.97" height="39.949"/>
	<rect x="335.573" y="51.932" style="fill:#4A89DC;" width="23.97" height="39.949"/>
</g>
<path style="fill:#5D9CEC;" d="M319.59,3.994H191.754c-8.825,0-15.979,7.155-15.979,15.979V131.83l39.949,47.938v23.969h79.898
	v-23.969l39.948-47.938V19.974C335.569,11.15,328.414,3.994,319.59,3.994z"/>
<g style="opacity:0.3;">
	<path style="fill:#FFFFFF;" d="M183.764,131.831V19.974c0-8.824,7.155-15.979,15.979-15.979h-7.989
		c-8.825,0-15.979,7.155-15.979,15.979v111.857l39.949,47.938v23.969h7.99v-23.969L183.764,131.831z"/>
</g>
<g style="opacity:0.3;">
	<path d="M327.58,131.831V19.974c0-8.824-7.155-15.979-15.98-15.979h7.99c8.824,0,15.979,7.155,15.979,15.979v111.857
		l-39.948,47.938v23.969h-7.99v-23.969L327.58,131.831z"/>
</g>
<rect x="223.713" y="291.622" style="fill:#5D9CEC;" width="63.918" height="15.979"/>
<g>
	<polygon style="fill:#4A89DC;" points="279.641,275.647 231.703,275.647 223.713,291.626 287.631,291.626 	"/>
	<rect x="231.703" y="203.742" style="fill:#4A89DC;" width="47.938" height="71.908"/>
</g>
<g style="opacity:0.3;">
	<polygon style="fill:#FFFFFF;" points="239.693,275.647 239.693,203.738 231.703,203.738 231.703,275.647 223.713,291.626 
		223.713,307.606 231.703,307.606 231.703,291.626 	"/>
</g>
<g style="opacity:0.3;">
	<polygon points="271.652,275.647 271.652,203.738 279.641,203.738 279.641,275.647 287.631,291.626 287.631,307.606 
		279.641,307.606 279.641,291.626 	"/>
</g>
<g>
	<rect x="223.713" y="307.602" style="fill:#656D78;" width="63.918" height="15.979"/>
	<rect x="231.703" y="347.552" style="fill:#656D78;" width="47.938" height="15.979"/>
</g>
<g>
	<polygon style="fill:#AAB2BD;" points="223.713,363.533 223.713,379.514 231.703,379.514 231.703,387.503 279.641,387.503 
		279.641,379.514 287.631,379.514 287.631,363.533 	"/>
	<polygon style="fill:#AAB2BD;" points="279.641,331.574 279.641,323.585 231.703,323.585 231.703,331.574 223.713,347.555 
		287.631,347.555 	"/>
</g>
<polygon style="fill:#CCD1D9;" points="263.662,483.38 255.672,507.35 247.682,483.38 247.682,387.503 263.662,387.503 "/>
<polygon style="fill:#FFFFFF;" points="255.672,483.38 255.672,395.492 247.682,395.492 247.682,483.38 255.672,507.35 
	259.667,495.365 "/>
<g>
	<rect x="231.703" y="179.772" style="fill:#4A89DC;" width="47.938" height="7.989"/>
	<rect x="207.733" y="99.872" style="fill:#4A89DC;" width="95.88" height="33.559"/>
	<rect x="207.733" y="3.994" style="fill:#4A89DC;" width="95.88" height="17.657"/>
</g>
<g style="opacity:0.2;">
	<rect x="231.703" y="203.742" width="47.938" height="7.99"/>
</g>
<g style="opacity:0.2;">
	<rect x="335.573" y="51.932" width="7.989" height="39.949"/>
</g>
<g style="opacity:0.2;">
	<rect x="167.783" y="51.932" width="7.99" height="39.949"/>
</g>
<g style="opacity:0.2;">
	<rect x="359.543" y="59.922" width="7.989" height="23.97"/>
</g>
<g style="opacity:0.2;">
	<rect x="143.813" y="59.922" width="7.989" height="23.97"/>
</g>
<g style="opacity:0.2;">
	<rect x="223.703" y="307.602" width="63.918" height="7.989"/>
</g>
<g style="opacity:0.2;">
	<rect x="231.683" y="323.582" width="47.954" height="7.989"/>
</g>
<g style="opacity:0.2;">
	<rect x="231.683" y="347.552" width="47.954" height="7.989"/>
</g>
<g style="opacity:0.2;">
	<rect x="247.673" y="387.502" width="15.992" height="7.989"/>
</g>
<g style="opacity:0.3;">
	<rect x="223.713" y="363.532" style="fill:#FFFFFF;" width="7.99" height="15.98"/>
</g>
<g style="opacity:0.3;">
	<rect x="231.703" y="379.512" style="fill:#FFFFFF;" width="7.99" height="7.989"/>
</g>
<g style="opacity:0.3;">
	<rect x="280.473" y="363.532" width="7.989" height="15.98"/>
</g>
<g style="opacity:0.3;">
	<rect x="272.483" y="379.512" width="7.99" height="7.989"/>
</g>
<g>
	<path style="fill:#3A3847;" d="M247.682,487.375c-2.208,0-3.995-1.787-3.995-3.995v-87.888c0-2.208,1.786-3.994,3.995-3.994
		c2.208,0,3.995,1.786,3.995,3.994v87.888C251.677,485.588,249.89,487.375,247.682,487.375z"/>
	<path style="fill:#3A3847;" d="M263.662,487.375c-2.209,0-3.995-1.787-3.995-3.995v-87.888c0-2.208,1.786-3.994,3.995-3.994
		c2.207,0,3.994,1.786,3.994,3.994v87.888C267.656,485.588,265.869,487.375,263.662,487.375z"/>
	<path style="fill:#3A3847;" d="M255.672,511.344c-1.674,0-3.23-1.061-3.788-2.73l-7.99-23.969
		c-0.699-2.092,0.433-4.354,2.524-5.057c2.106-0.702,4.354,0.438,5.052,2.528l7.99,23.969c0.698,2.091-0.433,4.354-2.524,5.057
		C256.515,511.281,256.09,511.344,255.672,511.344z"/>
	<path style="fill:#3A3847;" d="M255.672,511.344c-0.417,0-0.843-0.062-1.264-0.202c-2.092-0.702-3.223-2.966-2.524-5.057
		l7.989-23.969c0.695-2.091,2.938-3.23,5.053-2.528c2.091,0.702,3.223,2.965,2.52,5.057l-7.985,23.969
		C258.902,510.283,257.346,511.344,255.672,511.344z"/>
	<path style="fill:#3A3847;" d="M279.641,391.498h-47.938c-2.208,0-3.995-1.787-3.995-3.995s1.786-3.995,3.995-3.995h47.938
		c2.209,0,3.995,1.787,3.995,3.995S281.85,391.498,279.641,391.498z"/>
	<path style="fill:#3A3847;" d="M223.713,383.508c-2.208,0-3.995-1.787-3.995-3.994v-15.98c0-2.208,1.787-3.994,3.995-3.994
		s3.995,1.786,3.995,3.994v15.98C227.708,381.721,225.921,383.508,223.713,383.508z"/>
	<path style="fill:#3A3847;" d="M231.703,383.508h-7.99c-2.208,0-3.995-1.787-3.995-3.994c0-2.209,1.787-3.995,3.995-3.995h7.99
		c2.208,0,3.995,1.786,3.995,3.995C235.697,381.721,233.911,383.508,231.703,383.508z"/>
	<path style="fill:#3A3847;" d="M231.703,391.498c-2.208,0-3.995-1.787-3.995-3.995v-7.989c0-2.209,1.786-3.995,3.995-3.995
		c2.208,0,3.995,1.786,3.995,3.995v7.989C235.697,389.711,233.911,391.498,231.703,391.498z"/>
	<path style="fill:#3A3847;" d="M247.682,367.528h-23.969c-2.208,0-3.995-1.786-3.995-3.995c0-2.208,1.787-3.994,3.995-3.994h23.969
		c2.208,0,3.995,1.786,3.995,3.994C251.677,365.742,249.89,367.528,247.682,367.528z"/>
	<path style="fill:#3A3847;" d="M231.703,367.528c-2.208,0-3.995-1.786-3.995-3.995v-7.989c0-2.208,1.786-3.995,3.995-3.995
		c2.208,0,3.995,1.787,3.995,3.995v7.989C235.697,365.742,233.911,367.528,231.703,367.528z"/>
	<path style="fill:#3A3847;" d="M287.631,383.508c-2.208,0-3.995-1.787-3.995-3.994v-15.98c0-2.208,1.787-3.994,3.995-3.994
		s3.995,1.786,3.995,3.994v15.98C291.626,381.721,289.839,383.508,287.631,383.508z"/>
	<path style="fill:#3A3847;" d="M287.623,367.528h-23.969c-2.209,0-3.995-1.786-3.995-3.995c0-2.208,1.786-3.994,3.995-3.994h23.969
		c2.208,0,3.995,1.786,3.995,3.994C291.618,365.742,289.831,367.528,287.623,367.528z"/>
	<path style="fill:#3A3847;" d="M279.641,367.528c-2.207,0-3.994-1.786-3.994-3.995v-7.989c0-2.208,1.787-3.995,3.994-3.995
		c2.209,0,3.995,1.787,3.995,3.995v7.989C283.636,365.742,281.85,367.528,279.641,367.528z"/>
	<path style="fill:#3A3847;" d="M287.631,383.508h-7.99c-2.207,0-3.994-1.787-3.994-3.994c0-2.209,1.787-3.995,3.994-3.995h7.99
		c2.208,0,3.995,1.786,3.995,3.995C291.626,381.721,289.839,383.508,287.631,383.508z"/>
	<path style="fill:#3A3847;" d="M279.641,391.498c-2.207,0-3.994-1.787-3.994-3.995v-7.989c0-2.209,1.787-3.995,3.994-3.995
		c2.209,0,3.995,1.786,3.995,3.995v7.989C283.636,389.711,281.85,391.498,279.641,391.498z"/>
	<path style="fill:#3A3847;" d="M271.652,343.559h-31.959c-2.208,0-3.995-1.786-3.995-3.994s1.787-3.995,3.995-3.995h31.959
		c2.208,0,3.995,1.787,3.995,3.995S273.86,343.559,271.652,343.559z"/>
	<path style="fill:#3A3847;" d="M287.631,327.58h-63.918c-2.208,0-3.995-1.787-3.995-3.995s1.787-3.995,3.995-3.995h63.918
		c2.208,0,3.995,1.787,3.995,3.995S289.839,327.58,287.631,327.58z"/>
	<path style="fill:#3A3847;" d="M287.631,311.6h-63.918c-2.208,0-3.995-1.786-3.995-3.994s1.787-3.995,3.995-3.995h63.918
		c2.208,0,3.995,1.787,3.995,3.995S289.839,311.6,287.631,311.6z"/>
	<path style="fill:#3A3847;" d="M223.709,351.549c-0.601,0-1.209-0.141-1.783-0.421c-1.974-0.983-2.773-3.387-1.787-5.36
		l7.99-15.979c0.991-1.975,3.383-2.771,5.36-1.787c1.974,0.983,2.774,3.386,1.787,5.36l-7.99,15.979
		C226.584,350.737,225.176,351.549,223.709,351.549z"/>
	<path style="fill:#3A3847;" d="M287.631,351.549c-1.459,0-2.871-0.812-3.573-2.208l-7.99-15.979
		c-0.983-1.975-0.187-4.377,1.787-5.36s4.369-0.188,5.36,1.787l7.989,15.979c0.983,1.974,0.188,4.377-1.786,5.36
		C288.84,351.408,288.232,351.549,287.631,351.549z"/>
	<path style="fill:#3A3847;" d="M223.713,311.6c-2.208,0-3.995-1.786-3.995-3.994v-15.979c0-2.208,1.787-3.995,3.995-3.995
		s3.995,1.787,3.995,3.995v15.979C227.708,309.814,225.921,311.6,223.713,311.6z"/>
	<path style="fill:#3A3847;" d="M287.631,311.6c-2.208,0-3.995-1.786-3.995-3.994v-15.979c0-2.208,1.787-3.995,3.995-3.995
		s3.995,1.787,3.995,3.995v15.979C291.626,309.814,289.839,311.6,287.631,311.6z"/>
	<path style="fill:#3A3847;" d="M247.682,375.519c-2.208,0-3.995-1.787-3.995-3.995v-7.99c0-2.208,1.786-3.994,3.995-3.994
		c2.208,0,3.995,1.786,3.995,3.994v7.99C251.677,373.732,249.89,375.519,247.682,375.519z"/>
	<path style="fill:#3A3847;" d="M263.662,375.519c-2.209,0-3.995-1.787-3.995-3.995v-7.99c0-2.208,1.786-3.994,3.995-3.994
		c2.207,0,3.994,1.786,3.994,3.994v7.99C267.656,373.732,265.869,375.519,263.662,375.519z"/>
</g>
<g>
	<path style="fill:#3A3847;" d="M223.709,295.621c-0.601,0-1.209-0.141-1.783-0.422c-1.974-0.982-2.773-3.387-1.787-5.36
		l7.99-15.979c0.991-1.974,3.383-2.77,5.36-1.787c1.974,0.983,2.774,3.387,1.787,5.361l-7.99,15.979
		C226.584,294.809,225.176,295.621,223.709,295.621z"/>
	<path style="fill:#3A3847;" d="M287.631,295.621c-1.459,0-2.871-0.812-3.573-2.209l-7.99-15.979
		c-0.983-1.975-0.187-4.378,1.787-5.361c1.974-0.982,4.369-0.187,5.36,1.787l7.989,15.979c0.983,1.974,0.188,4.378-1.786,5.36
		C288.84,295.481,288.232,295.621,287.631,295.621z"/>
	<path style="fill:#3A3847;" d="M231.703,279.641c-2.208,0-3.995-1.786-3.995-3.994v-63.918c0-2.208,1.786-3.995,3.995-3.995
		c2.208,0,3.995,1.787,3.995,3.995v63.918C235.697,277.855,233.911,279.641,231.703,279.641z"/>
	<path style="fill:#3A3847;" d="M279.641,279.641c-2.207,0-3.994-1.786-3.994-3.994v-63.918c0-2.208,1.787-3.995,3.994-3.995
		c2.209,0,3.995,1.787,3.995,3.995v63.918C283.636,277.855,281.85,279.641,279.641,279.641z"/>
	<path style="fill:#3A3847;" d="M295.621,207.734h-79.898c-2.208,0-3.995-1.787-3.995-3.995s1.786-3.995,3.995-3.995h79.898
		c2.208,0,3.994,1.787,3.994,3.995S297.829,207.734,295.621,207.734z"/>
	<path style="fill:#3A3847;" d="M295.621,207.734c-2.209,0-3.995-1.787-3.995-3.995V179.77c0-2.208,1.786-3.995,3.995-3.995
		c2.208,0,3.994,1.787,3.994,3.995v23.969C299.615,205.946,297.829,207.734,295.621,207.734z"/>
	<path style="fill:#3A3847;" d="M215.723,207.734c-2.208,0-3.995-1.787-3.995-3.995V179.77c0-2.208,1.786-3.995,3.995-3.995
		c2.208,0,3.995,1.787,3.995,3.995v23.969C219.718,205.946,217.931,207.734,215.723,207.734z"/>
	<path style="fill:#3A3847;" d="M295.621,183.764c-0.905,0-1.811-0.304-2.56-0.924c-1.693-1.412-1.919-3.933-0.507-5.63
		l39.949-47.938c1.42-1.697,3.94-1.912,5.626-0.511c1.693,1.412,1.919,3.933,0.507,5.629l-39.948,47.938
		C297.899,183.276,296.76,183.764,295.621,183.764z"/>
	<path style="fill:#3A3847;" d="M215.727,183.764c-1.147,0-2.282-0.487-3.074-1.436l-39.949-47.938
		c-1.412-1.696-1.182-4.217,0.511-5.629c1.697-1.408,4.218-1.187,5.63,0.511l39.948,47.938c1.413,1.697,1.183,4.218-0.511,5.63
		C217.533,183.46,216.628,183.764,215.727,183.764z"/>
	<path style="fill:#3A3847;" d="M207.734,132.635c-2.208,0-3.995-1.787-3.995-3.995V99.872c0-2.209,1.787-3.995,3.995-3.995
		s3.995,1.786,3.995,3.995v28.768C211.729,130.848,209.942,132.635,207.734,132.635z"/>
	<path style="fill:#3A3847;" d="M303.611,137.425c-2.208,0-3.995-1.786-3.995-3.994V99.872c0-2.209,1.787-3.995,3.995-3.995
		s3.995,1.786,3.995,3.995v33.559C307.606,135.639,305.819,137.425,303.611,137.425z"/>
	<path style="fill:#3A3847;" d="M255.672,295.621c-2.208,0-3.995-1.787-3.995-3.995v-79.897c0-2.208,1.787-3.995,3.995-3.995
		c2.208,0,3.995,1.787,3.995,3.995v79.897C259.667,293.834,257.88,295.621,255.672,295.621z"/>
	<path style="fill:#3A3847;" d="M303.611,103.866h-95.877c-2.208,0-3.995-1.786-3.995-3.994c0-2.209,1.787-3.995,3.995-3.995h95.877
		c2.208,0,3.995,1.786,3.995,3.995C307.606,102.08,305.819,103.866,303.611,103.866z"/>
	<path style="fill:#3A3847;" d="M335.569,135.825c-2.208,0-3.995-1.786-3.995-3.994V19.974c0-2.208,1.787-3.994,3.995-3.994
		s3.995,1.786,3.995,3.994v111.857C339.565,134.039,337.777,135.825,335.569,135.825z"/>
	<path style="fill:#3A3847;" d="M175.775,135.825c-2.208,0-3.995-1.786-3.995-3.994V19.974c0-2.208,1.787-3.994,3.995-3.994
		s3.995,1.786,3.995,3.994v111.857C179.769,134.039,177.983,135.825,175.775,135.825z"/>
	<path style="fill:#3A3847;" d="M335.569,23.969c-2.208,0-3.995-1.786-3.995-3.995c0-6.608-5.375-11.984-11.984-11.984H191.754
		c-6.609,0-11.985,5.376-11.985,11.984c0,2.209-1.787,3.995-3.995,3.995s-3.995-1.786-3.995-3.995C171.779,8.961,180.74,0,191.754,0
		H319.59c11.018,0,19.975,8.961,19.975,19.974C339.565,22.183,337.777,23.969,335.569,23.969z"/>
	<path style="fill:#3A3847;" d="M207.734,23.969c-2.208,0-3.995-1.786-3.995-3.995V3.994c0-2.208,1.787-3.994,3.995-3.994
		s3.995,1.786,3.995,3.994v15.979C211.729,22.183,209.942,23.969,207.734,23.969z"/>
	<path style="fill:#3A3847;" d="M231.703,23.969c-2.208,0-3.995-1.786-3.995-3.995V3.994c0-2.208,1.786-3.994,3.995-3.994
		c2.208,0,3.995,1.786,3.995,3.994v15.979C235.697,22.183,233.911,23.969,231.703,23.969z"/>
	<path style="fill:#3A3847;" d="M255.672,23.969c-2.208,0-3.995-1.786-3.995-3.995V3.994c0-2.208,1.787-3.994,3.995-3.994
		c2.208,0,3.995,1.786,3.995,3.994v15.979C259.667,22.183,257.88,23.969,255.672,23.969z"/>
	<path style="fill:#3A3847;" d="M279.641,23.969c-2.207,0-3.994-1.786-3.994-3.995V3.994c0-2.208,1.787-3.994,3.994-3.994
		c2.209,0,3.995,1.786,3.995,3.994v15.979C283.636,22.183,281.85,23.969,279.641,23.969z"/>
	<path style="fill:#3A3847;" d="M303.611,23.969c-2.208,0-3.995-1.786-3.995-3.995V3.994c0-2.208,1.787-3.994,3.995-3.994
		s3.995,1.786,3.995,3.994v15.979C307.606,22.183,305.819,23.969,303.611,23.969z"/>
	<path style="fill:#3A3847;" d="M303.611,55.928h-95.877c-2.208,0-3.995-1.786-3.995-3.995c0-2.208,1.787-3.994,3.995-3.994h95.877
		c2.208,0,3.995,1.786,3.995,3.994C307.606,54.142,305.819,55.928,303.611,55.928z"/>
	<path style="fill:#3A3847;" d="M231.703,191.754c-2.208,0-3.995-1.787-3.995-3.995v-7.989c0-2.208,1.786-3.995,3.995-3.995
		c2.208,0,3.995,1.787,3.995,3.995v7.989C235.697,189.967,233.911,191.754,231.703,191.754z"/>
	<path style="fill:#3A3847;" d="M279.641,191.754c-2.207,0-3.994-1.787-3.994-3.995v-7.989c0-2.208,1.787-3.995,3.994-3.995
		c2.209,0,3.995,1.787,3.995,3.995v7.989C283.636,189.967,281.85,191.754,279.641,191.754z"/>
	<path style="fill:#3A3847;" d="M279.641,183.764h-47.938c-2.208,0-3.995-1.786-3.995-3.994s1.786-3.995,3.995-3.995h47.938
		c2.209,0,3.995,1.787,3.995,3.995S281.85,183.764,279.641,183.764z"/>
	<path style="fill:#3A3847;" d="M287.631,119.846h-63.918c-2.208,0-3.995-1.786-3.995-3.994s1.787-3.995,3.995-3.995h63.918
		c2.208,0,3.995,1.787,3.995,3.995S289.839,119.846,287.631,119.846z"/>
	<path style="fill:#3A3847;" d="M359.539,55.928h-15.98c-2.207,0-3.994-1.786-3.994-3.995c0-2.208,1.787-3.994,3.994-3.994h15.98
		c2.208,0,3.994,1.786,3.994,3.994C363.533,54.142,361.747,55.928,359.539,55.928z"/>
	<path style="fill:#3A3847;" d="M359.539,95.877h-15.98c-2.207,0-3.994-1.787-3.994-3.995s1.787-3.995,3.994-3.995h15.98
		c2.208,0,3.994,1.787,3.994,3.995S361.747,95.877,359.539,95.877z"/>
	<path style="fill:#3A3847;" d="M359.539,95.877c-2.209,0-3.995-1.787-3.995-3.995V51.933c0-2.208,1.786-3.994,3.995-3.994
		c2.208,0,3.994,1.786,3.994,3.994v39.949C363.533,94.09,361.747,95.877,359.539,95.877z"/>
	<path style="fill:#3A3847;" d="M455.416,63.918h-87.888c-2.208,0-3.995-1.787-3.995-3.995s1.787-3.995,3.995-3.995h87.888
		c2.208,0,3.994,1.787,3.994,3.995S457.624,63.918,455.416,63.918z"/>
	<path style="fill:#3A3847;" d="M463.405,87.887h-95.877c-2.208,0-3.995-1.786-3.995-3.994c0-2.209,1.787-3.995,3.995-3.995h95.877
		c2.208,0,3.995,1.786,3.995,3.995C467.401,86.101,465.613,87.887,463.405,87.887z"/>
	<path style="fill:#3A3847;" d="M463.405,87.887c-1.669,0-3.229-1.057-3.792-2.73l-7.989-23.97
		c-0.694-2.095,0.437-4.357,2.528-5.052c2.091-0.683,4.354,0.429,5.056,2.524l7.989,23.969c0.695,2.095-0.437,4.357-2.527,5.053
		C464.248,87.82,463.827,87.887,463.405,87.887z"/>
	<path style="fill:#3A3847;" d="M391.498,71.907c-2.209,0-3.995-1.786-3.995-3.994v-7.99c0-2.208,1.786-3.995,3.995-3.995
		c2.208,0,3.994,1.787,3.994,3.995v7.99C395.492,70.121,393.706,71.907,391.498,71.907z"/>
	<path style="fill:#3A3847;" d="M407.478,71.907c-2.208,0-3.995-1.786-3.995-3.994v-7.99c0-2.208,1.787-3.995,3.995-3.995
		s3.995,1.787,3.995,3.995v7.99C411.473,70.121,409.686,71.907,407.478,71.907z"/>
	<path style="fill:#3A3847;" d="M423.457,71.907c-2.208,0-3.995-1.786-3.995-3.994v-7.99c0-2.208,1.787-3.995,3.995-3.995
		s3.994,1.787,3.994,3.995v7.99C427.451,70.121,425.665,71.907,423.457,71.907z"/>
	<path style="fill:#3A3847;" d="M167.784,55.928h-15.979c-2.208,0-3.995-1.786-3.995-3.995c0-2.208,1.787-3.994,3.995-3.994h15.979
		c2.208,0,3.995,1.786,3.995,3.994C171.779,54.142,169.993,55.928,167.784,55.928z"/>
	<path style="fill:#3A3847;" d="M167.784,95.877h-15.979c-2.208,0-3.995-1.787-3.995-3.995s1.787-3.995,3.995-3.995h15.979
		c2.208,0,3.995,1.787,3.995,3.995S169.993,95.877,167.784,95.877z"/>
	<path style="fill:#3A3847;" d="M151.805,95.877c-2.208,0-3.995-1.787-3.995-3.995V51.933c0-2.208,1.787-3.994,3.995-3.994
		s3.995,1.786,3.995,3.994v39.949C155.8,94.09,154.013,95.877,151.805,95.877z"/>
	<path style="fill:#3A3847;" d="M143.816,63.918H55.928c-2.208,0-3.995-1.787-3.995-3.995s1.787-3.995,3.995-3.995h87.888
		c2.208,0,3.995,1.787,3.995,3.995S146.024,63.918,143.816,63.918z"/>
	<path style="fill:#3A3847;" d="M143.816,87.887H47.938c-2.208,0-3.995-1.786-3.995-3.994c0-2.209,1.787-3.995,3.995-3.995h95.877
		c2.208,0,3.995,1.786,3.995,3.995C147.81,86.101,146.024,87.887,143.816,87.887z"/>
	<path style="fill:#3A3847;" d="M47.938,87.887c-0.417,0-0.842-0.066-1.264-0.206c-2.091-0.695-3.222-2.958-2.524-5.053l7.99-23.969
		c0.698-2.092,2.949-3.227,5.052-2.524c2.091,0.694,3.222,2.957,2.524,5.052l-7.989,23.97C51.168,86.83,49.612,87.887,47.938,87.887
		z"/>
	<path style="fill:#3A3847;" d="M119.846,71.907c-2.208,0-3.995-1.786-3.995-3.994v-7.99c0-2.208,1.787-3.995,3.995-3.995
		s3.995,1.787,3.995,3.995v7.99C123.841,70.121,122.054,71.907,119.846,71.907z"/>
	<path style="fill:#3A3847;" d="M103.866,71.907c-2.208,0-3.995-1.786-3.995-3.994v-7.99c0-2.208,1.787-3.995,3.995-3.995
		s3.995,1.787,3.995,3.995v7.99C107.861,70.121,106.074,71.907,103.866,71.907z"/>
	<path style="fill:#3A3847;" d="M87.887,71.907c-2.208,0-3.995-1.786-3.995-3.994v-7.99c0-2.208,1.787-3.995,3.995-3.995
		s3.995,1.787,3.995,3.995v7.99C91.882,70.121,90.095,71.907,87.887,71.907z"/>
	<path style="fill:#3A3847;" d="M119.846,143.816c-2.208,0-3.995-1.787-3.995-3.995V91.882c0-2.208,1.787-3.995,3.995-3.995
		s3.995,1.787,3.995,3.995v47.938C123.841,142.028,122.054,143.816,119.846,143.816z"/>
	<path style="fill:#3A3847;" d="M135.825,151.805c-2.208,0-3.995-1.786-3.995-3.994V91.882c0-2.208,1.787-3.995,3.995-3.995
		s3.995,1.787,3.995,3.995v55.929C139.82,150.019,138.033,151.805,135.825,151.805z"/>
	<path style="fill:#3A3847;" d="M87.883,215.724c-0.835,0-1.673-0.262-2.392-0.8c-1.767-1.323-2.126-3.827-0.799-5.591
		l47.938-63.918c1.327-1.771,3.835-2.122,5.59-0.8c1.768,1.322,2.126,3.827,0.8,5.591l-47.938,63.918
		C90.298,215.173,89.1,215.724,87.883,215.724z"/>
	<path style="fill:#3A3847;" d="M87.883,199.743c-0.671,0-1.354-0.167-1.978-0.526c-1.916-1.092-2.583-3.534-1.486-5.45
		l31.959-55.928c1.088-1.92,3.526-2.595,5.45-1.486c1.915,1.092,2.582,3.534,1.486,5.45l-31.959,55.928
		C90.618,199.022,89.272,199.743,87.883,199.743z"/>
	<path style="fill:#3A3847;" d="M87.887,215.724c-2.208,0-3.995-1.787-3.995-3.995V195.75c0-2.208,1.787-3.995,3.995-3.995
		s3.995,1.787,3.995,3.995v15.979C91.882,213.937,90.095,215.724,87.887,215.724z"/>
	<path style="fill:#3A3847;" d="M223.713,327.58c-2.208,0-3.995-1.787-3.995-3.995v-7.99c0-2.208,1.787-3.995,3.995-3.995
		s3.995,1.787,3.995,3.995v7.99C227.708,325.793,225.921,327.58,223.713,327.58z"/>
	<path style="fill:#3A3847;" d="M287.631,327.58c-2.208,0-3.995-1.787-3.995-3.995v-7.99c0-2.208,1.787-3.995,3.995-3.995
		s3.995,1.787,3.995,3.995v7.99C291.626,325.793,289.839,327.58,287.631,327.58z"/>
</g>
<g>
</g>
<g>
</g>
<g>
</g>
<g>
</g>
<g>
</g>
<g>
</g>
<g>
</g>
<g>
</g>
<g>
</g>
<g>
</g>
<g>
</g>
<g>
</g>
<g>
</g>
<g>
</g>
<g>
</g>
</svg>
