<?xml version="1.0" encoding="utf-8"?>
<!-- Generator: Adobe Illustrator 22.1.0, SVG Export Plug-In . SVG Version: 6.00 Build 0)  -->
<svg version="1.1" id="Layer_1" xmlns="http://www.w3.org/2000/svg" xmlns:xlink="http://www.w3.org/1999/xlink" x="0px" y="0px"
	 viewBox="0 0 437.8 398" style="enable-background:new 0 0 437.8 398;" xml:space="preserve">
<style type="text/css">
	.st0{fill:#878787;stroke:#F9F9F9;stroke-width:0.25;stroke-linecap:round;stroke-linejoin:round;}
</style>
<g id="Background">
</g>
<g id="Nicaruaga_1_">
	<path id="South_Caribbean_Coast_Autonomous_Region" class="st0" d="M346.6,278.3l0.6-1.4l0.6-0.9v-0.3v-0.2l-0.1-0.1h-0.1l-1.8,1.2
		l-0.6,2.7l0.2,3.1l0.6,2.4l0.5,0.7v-1.2l-0.5-3.2l0.1-1.4L346.6,278.3z M364.1,229.9l-0.8-2.8l-1.2-2.5l-0.3-0.8v-5.1l2.9-23
		l-1.9-11.3l0,0l-1.6,0.2l-4.3-0.3l-3.5,0.2l-1.6-0.5l-8.4-4.9l-6.4-4.7l-0.4-0.4l-0.2-0.4l-0.1-0.5l0.1-0.5l0.2-0.5l0.3-0.5l1.6-2
		l0.3-0.5l0.2-0.5l0.1-0.5l-0.3-0.4l-0.7-0.3l-1.5-0.4l-0.9-0.4l-0.7-0.4l-0.9-0.4l-1.6-0.3l-6.9-0.3l-1.3-0.1l-0.3-0.2l-0.9-0.2
		l0.5,1l0.1,0.9l-0.3,0.4l-0.8-0.5H322l-0.8,0.4h-0.4l-0.6-0.4l-0.7,1.8l-1,0.2l-1.3-0.5l-1.6-0.3l0.4,0.5l0.5,0.9l0.3,0.4l-1.3-0.3
		l-2.1,0.6l-0.7-0.4l-0.5-0.1l-0.5-0.6l-0.3-0.6l-1.6-5.2l-0.2-0.4l-0.7-0.2l-1.2,0.1l-5.1,1.4h-0.8l-1-0.3l-0.6-0.4l-0.5-0.3
		l-0.5-0.1l-0.6-0.1H298l-0.6,0.2l-0.9,0.6l-1,1.1l-1.1,0.4l-1.7,0.2l-11.9,0.1l-22,2.7l-3.7,4.9l-0.3,0.5l-0.3,0.6l0.2,0.1l0.2,0.1
		l0.6,0.6l0.2,0.1l0.2,0.1l0.2,0.1l0.2,0.1l0.2,0.1l0.3,0.3l0.7,0.9l0.1,0.2l0.5,1.7l1.2,2.6l0.2,0.3l0.3,0.3l0.2,0.1l0.2,0.1
		l0.2,0.1h0.3h0.3h0.3l0.2-0.1l1-0.6l0.2-0.1l0.2-0.1h0.2h0.2l-0.1,0.1l-0.3,0.2l-0.6,0.5h-0.1l-1.8,2l-0.4,0.7l-0.5,2.9l-0.1,1.3
		l-0.1,0.3l-0.4,0.9l-0.2,1.3l-0.2,0.1l-0.4-0.1l-0.5,0.2l-0.9,0.7h-0.4l-0.5-0.4l-1.1-0.3h-1.2l-1.6,0.4l-1,0.1l-1.3,0.9l-1.8,1.7
		l-1.9,1.3l-1.7-0.3l-0.6,1.4l-0.9,1.3l-0.5,0.5l-1,0.7l-0.3,0.4l-1.1-0.4l-5-0.9l-0.9,0.1l-2.3,0.7l-1.2,0.2h-1l-0.9-0.1l-1.5-0.5
		l-0.7-0.1l-0.9,0.1l-0.3,0.4v1.4l-0.3,0.8l-1,0.9l-0.8,0.3h-1l-0.9-0.1l-1.2,0.1l-0.7,0.4l-0.6,0.6l-0.3,0.7l-0.1,0.9l0.1,0.8
		l0.8,1.7l0.4,1l0.7,3l2.2,4.7l1.4,0.5l0.7-0.7l-0.1-1.3l-0.9-1.4l1.1-1.1l0.3-0.2v-0.3l0.6-0.5l0.7-0.4h0.2l0.4-1.3l0.3-2.4l0.4-1
		l1.6-1.5h1.6l1.6,0.9l2.5,1.9l0.4,0.2l0.7,1.1l0.8,0.4l0.5,0.5l0.5,0.6l0.7,1.4l0.4,1.1l0.1,1.6l-0.2,1.4v0.4l0.1,0.3l1,0.5
		l0.4,0.4l2,3l2.5,2.3l0.5,0.8l1.9,4.2l1.8,2.7l1.1,1.1l0.5,0.9l0.2,0.6l-0.1,0.5l-0.5,1.2l-0.2,1.1l-0.1,1.5l0.4,2.8l0.4,1.4
		l0.6,1.1l0.6,0.6l0.6,0.5l0.5,0.5l3,5.4l0.3,1.3l-0.5,2l0.1,2.9l1.1,5.2l5.4,13.7l0.6,0.9l10.9,5.2l-3.3,1.4l-0.7,0.6l0.1,0.4
		l0.1,0.3l0.6,1.2l0.4,1.5l1.7,6l1.3,2.4l0.7,0.6l0.5,0.6l0.2,0.6l-0.1,1l0.1,2.3l0.9,2.2l0.8,2.7v0.7l-0.1,1l-0.8,2l-1.2,4.2
		l-0.2,1.7v1.1l0.6,3.4l0.3,3.4l5.7,2.1l2.5,1.5l6.8,4.2l1.3,1.3l0.5,1.2l0.1,1.1l0.2,1.1l0.6,1.3l0.8,0.8l0.8,0.6l4,2.1l3.4,2.4
		l2.4,2.4l0.7,1l1.7,2.9l0.4,0.5l0.4,0.2h0.3l0.3,0.1l0.3,0.2l0.5,0.3l0.2,0.1l0.5,0.1l0.6,0.2h0.2h0.2l0.9-0.1h0.5h0.2l0.5,0.1
		l1.4,0.6l1.1,0.4l2.7-0.3l0.5,0.1l0.3,0.2l-0.1,0.5v0.3v0.2l0.1,0.2l0.9,1l0.8,0.7l0.5,0.2h0.3l0.7-0.4l0.5-0.1l0.2-0.1l0.4-0.2
		l0.2-0.1l0.4-0.2l0.3-0.1l0.6-0.1l0.5,0.1l0.8,0.3l0.4,0.1h0.3l0.2-0.1l0.2-0.1l0.2-0.1l0.2-0.1l0.7-0.3l0.8-0.1l0.4-0.1l1.2-0.6
		h0.3l0.1,0.2v0.3l-0.1,1.6v0.3l0.1,0.5l0.1,0.2l0.2,0.3l0.3,0.3l0.1,0.2l0.1,0.2v0.3v0.6l0.1,0.3l0.1,0.3l0.4,0.5l0.3,0.2h0.2
		l0.2-0.1l0.2-0.1l0.2-0.1h0.6l1,0.1l3.4,0.7l0.6,0.2l0.2,0.1l0.3,0.3l1.6,2l1.2,2l2.2,2.4l1.5,1.1l0,0l-0.6-1.7l-1.5-1l-0.7-0.7
		l-2-3.3l-0.8-2.2l-2.6-4l-1.8-4.5l-2.6-11.4V329l0.4-1.5l0.8-1.3l2.7-3.5h0.5l1.8,0.3l1.2-3.1l0.8-4.1l0.9-2.7l0.7-0.7l0.7-0.3
		l0.8-0.1h1l0.8-0.3l0.8-1.3l0.7-0.3l0.1-0.2l1.2-0.4l1.2-0.2l0.2,0.3l0.7-0.6l0.3-0.5l0.1-0.7v-1.1l-0.2-3.1l-3.9-15.9l-0.8-0.7
		h-1.4l-0.8,0.3l-0.5,0.9l-0.6,1.7l0.1,0.7l0.4,0.6l-0.1,0.4l-1.3,0.1l-0.9-0.1l-0.8-0.3l-0.6-0.5l-0.7-1.7l-1.2-1.3l-1.4-1.2
		l-1.1-0.8l0.4-0.8l0.7-0.8l0.8-0.6l0.7-0.3l0.5-0.3l1.6-2l0.3-0.2l0.4-0.2l0.5-0.3l0.4-0.5l0.1-0.6l-0.2-0.5l-0.3-0.5l-0.1-0.5
		l0.2-0.6l0.8-1.6l0.2-0.8l-0.1-1.1l-0.2-1.1l-0.3-0.9l-0.5-0.7l-2.1-0.9l-1-0.6l0.5-0.3l3.5,1.1l1.5-0.1l0.5-1.7l0.1-1.4l1.3-1.9
		l0.3-1.5l-0.2-1.2l-0.6-0.9l-1.4-1.5h-0.6l-1.1,1.2l-1.4-0.8l-0.1-1.3l2.6-0.3l1.6,0.8l1.5,1.5l1.1,1.7l0.4,1.5l-0.7,2l-1.2,0.9
		l-0.7,0.9l0.9,2.2l2.1,2.7l0.6,1.5l-0.3,1.8l0.6-0.2l0.6-0.4l-0.6-1.9l-0.6-11.1l1.9-10.3l4-8l-0.4-0.7l-1.7-0.2l-0.8,0.5l-0.5,1.1
		l-1.4,4.5l-0.4,0.8l-0.2-0.5l0.1-1l0.4-1.7l0.1-0.9L350,245l-2.7,0.6l-1.6-0.8l-0.6-1.6l0.3-1.7l0.6-1.8l0.3-1.9l-0.6-3.9l-0.7-0.8
		l-0.6-0.2h-0.7l-1-0.2H342l-0.3,0.2l-0.1-0.1v-4.5l0.6-1.1l1.5-0.5l3.7-0.4l2.7-1.2l4.5-3.8l2.7-1.6l-0.9-1.4l-0.3-0.4l0.4-0.7
		l0.2-0.6v-1.5l-0.1-0.9l-0.3-0.3l-0.4-0.2l-0.4-0.6l-0.1-0.6l-0.1-1.5v-0.3l-0.2-0.2l-1.9-1l-0.7-1.5v-1.8l0.8-1.6l1.8-1l2.2-0.2
		l2.3,0.6l1.6,1.4l0.3,2.3l-0.3,0.6l-0.4,0.4l-0.3,0.3l-0.2,0.2l-0.1,4.9l-0.3,1.2l-0.7,0.8v0.6l1.1,2.7l-0.7,3.9l-2.1,2.7l-3-1H354
		l-0.2,0.3h-0.1h-0.1l-0.3,0.2l0.4,2.2l-0.1,5.7l1.9,1.7l0.5,1.2l0.3,1.4l-0.1,1l-0.5,0.6l-1.8,1.2l-0.6,0.6l1.7,0.9l2-0.3l2.1-0.8
		l2.1-0.4l2.7-0.1l1.7-0.6l0.9-1.4l0.2-2.7l-0.6-2.2L364.1,229.9z M403.9,258.3l-0.8,1.5l0.2,1.9l2.5-2.7l0.3-0.6l-1-0.8
		L403.9,258.3z M409.2,248.3l-0.1-0.3l-0.2-0.7l-0.4,0.2l-0.4,0.7l0.2,0.4l0.6,0.3l0.4,0.5v-1L409.2,248.3z"/>
	<polygon id="Río_San_Juan" class="st0" points="351.6,366.9 349.8,366.5 348.5,366.7 348.9,367.6 347.4,367.9 346.7,366.1 
		345.2,364.9 343,362.5 341.8,360.5 340.2,358.5 339.9,358.2 339.7,358 339.1,357.8 335.8,357.2 334.8,357.1 334.2,357.1 334,357.2 
		333.8,357.3 333.6,357.4 333.4,357.4 333.1,357.2 332.7,356.8 332.6,356.5 332.5,356.1 332.5,355.6 332.5,355.3 332.4,355.1 
		332.2,354.9 331.9,354.6 331.7,354.3 331.6,354.1 331.5,353.6 331.5,353.3 331.6,351.7 331.6,351.4 331.5,351.3 331.2,351.2 
		330,351.8 329.6,351.9 328.8,352 328.1,352.3 327.9,352.4 327.7,352.5 327.5,352.6 327.3,352.7 327,352.7 326.6,352.6 325.8,352.3 
		325.3,352.2 324.6,352.3 324.3,352.5 323.9,352.7 323.7,352.8 323.4,353 323.2,353.1 322.6,353.2 321.9,353.6 321.6,353.6 
		321.1,353.3 320.3,352.7 319.3,351.7 319.2,351.5 319.2,351.3 319.2,351 319.3,350.5 319,350.4 318.4,350.3 315.7,350.7 
		314.7,350.3 313.3,349.8 312.7,349.6 312.5,349.6 312,349.6 311.1,349.7 310.9,349.7 310.6,349.7 310,349.4 309.5,349.3 
		309.3,349.2 308.7,348.9 308.4,348.7 308.1,348.7 307.9,348.7 307.5,348.5 307.1,347.9 305.3,345.1 304.6,344.1 302.2,341.7 
		298.8,339.2 294.8,337.2 294,336.6 293.3,335.8 292.6,334.5 292.5,333.4 292.4,332.3 291.9,331.1 290.6,329.8 283.8,325.5 
		281.3,324 275.7,321.9 275.4,318.6 274.7,315.2 274.8,314.1 275,312.4 276.2,308.2 277,306.3 277.2,305.3 277.2,304.6 276.4,301.9 
		275.5,299.7 275.3,297.4 275.4,296.3 275.2,295.8 274.7,295.2 274,294.6 272.7,292.3 271,286.3 267.7,286.2 266.8,286 266.4,285.8 
		266.1,285.7 265.8,285.7 264.5,285.8 264.1,285.8 263.4,285.6 263,285.6 261.3,285.9 255,285.8 254.6,285.9 254.2,286 253.9,286.4 
		248.3,291.6 246.1,293.1 242.5,293.9 241.2,295.8 241,296.4 241,296.5 240.9,296.8 240.8,297.1 240.4,297.5 240.3,297.7 
		240.2,297.9 240.1,298 239.5,298.7 239.1,299.2 238.8,299.7 238.5,299.9 238,300.2 236.4,300.8 236,300.8 235.8,300.8 235.4,300.6 
		234.9,300.8 234.1,301.3 232.4,302.5 231.1,303.1 230.7,303.5 230.5,303.7 229.2,306 229.7,306.2 229.9,306.3 231.4,307.7 
		232,308.6 232.7,310.8 233.7,311.8 235.8,313.5 239.2,317.7 241.1,318.9 243.9,323 244.6,323.4 245.2,323.5 245.7,323.6 
		246.3,324.2 246.5,324.9 246.7,325.8 246.8,327.5 247.3,329.3 248.3,330.3 249.4,331.1 250.3,332.5 250.1,332.8 249.6,333.1 
		249.3,333.5 249.7,334.3 250.8,334.1 251.6,334.1 252.4,334.6 254.8,337.1 255.6,338.3 256.1,340.3 256.1,347.1 256.4,349 
		257.5,351.8 257.4,353.4 256.6,354.2 252.9,356.9 250.2,357 249.7,357.2 249.3,357.5 247.1,358.5 246.3,358.7 244.5,358.4 
		243.2,356.7 241.3,356.3 239.9,356.2 224.6,352.7 223.2,352.7 221.8,352.9 220.4,353 218.5,352.1 217.5,352 215.7,352.1 215,351.8 
		213.3,349.9 212.4,349.2 209.2,348.1 208.8,348 208.6,348.4 212,351.6 219.7,354.4 223.8,356.2 235.3,360.5 242.5,362.9 
		247.4,365.7 256.2,359.9 262.5,355.7 265.1,355.1 266.6,355.8 269.9,358.1 271.4,358.3 273.2,358.2 275.2,358.8 279.4,360.7 
		279.9,360.9 280.3,361 280.7,361.3 281.1,361.5 283,363.9 283.7,364.6 284.5,365 285.4,365.3 286.3,365.4 287.1,365.1 291.7,362.1 
		292.5,361.7 293.3,362.1 293.5,362.7 293.4,363.6 293.6,364.7 294,365.3 295.1,366.7 295.4,367.3 296.3,368.2 300.2,369.7 
		301.1,370.3 301.9,371.2 303.5,372 305,373.3 305.3,375.3 304.1,376 303.8,376.2 303.4,376.9 303.5,377.4 303.9,377.7 304.1,378 
		306,379.5 306.4,380.1 307.4,379.4 308.7,379.5 309.3,379.5 310,379.7 311,379.5 312.6,381 313.6,381.4 314.6,380.7 315.2,380.7 
		316.2,381.7 318.3,380.3 319.8,380.7 320.8,379.6 321.9,379.5 322.9,380.1 323.3,381.6 328.4,385.6 329,385.9 329.8,386 
		330.6,385.9 331.8,385 332.3,384.9 334.7,385.3 335,385.1 336.7,383.1 342.4,380.9 342.8,380.8 348.4,379.5 351.4,377.9 
		351.6,375.6 350.9,372.5 350.8,368.8 350.8,368.4 350.7,367.9 351.3,367.5 351.8,367.6 352.4,367.6 353,367.6 	"/>
	<path id="Rivas" class="st0" d="M181.5,319.5l1.7,0.1l2.7-0.6l1.5-0.1l2,1.2l1.6,4.8l1.9,1.1l0.8,0.1l0.9,0.5l0.7,0.1l0.3-0.2
		l1.1-0.8l0.4-0.2l1.1-0.4l0.9-0.9l0.3-1.2l-0.7-1.4l-0.8-1.2l-0.3-0.9l-0.3-0.5l-1-0.2l-1.3-0.2l-1.1-0.4l-1-0.2l-1,0.3l-1.2-1.1
		l-0.3-1.3v-1.5l-0.2-1.6l-0.5-0.8l-0.9-0.7l-1.1-0.5l-0.5-0.3l-0.6-0.6l-1,0.5l-3.6,0.1l-1.8,0.7l-1.1,1.5l-1.4,3.4l-1,1.1l3.3,2
		L181.5,319.5z M242.5,362.9l-7.3-2.5l-11.4-4.2l-4.2-1.8l-7.6-2.8l-3.5-3.2l0.2-0.5l-2.5-0.6l-3.5-0.3l-7.5-2.7l-1.2-0.9l-1-1
		l-1-0.8l-2.3-1.4l-1.3-0.6l-1.4-0.4l-2.8-0.3l-10.4-10.4l-1.5-2.7l-2.3-8.9l-0.6-1.4l-2.6-4.5l-1.4-1.3v1.3l-0.7-0.6l-0.4-0.7
		l-0.2-0.8l0.1-0.9l0.4,0.2l0.8,0.2l0.5,0.2l-1.1-5.1l-0.7-1.4l0.2-0.2h-0.7v0.3l0.5,1.6l-1.2-0.9l-1-1h-0.3l-2.8,0.8l-3.8,1
		l-0.4-0.1l-0.8-0.9l-0.3-0.4l-0.4-0.2l-0.4-0.1h-0.1h-0.2l-0.2,0.1l-0.2,0.3l-1.3,2.9l-0.9,1.5l-0.3,0.2l-2.4,1.2l-0.3,0.3
		l-0.6,0.1l-2-0.5l-3,2l-0.3,0.3l-0.6,1.1l-2.5,4.5l0,0l0.7,2.3l0.3,0.7l1.2,1.1l3.7,2.1l2.9,3.1l2.3,1.2l2.9,3.5l1.3,1.2l3,0.8
		l0.3,0.4l1.3,0.9l0.4,0.2l0.7,0.5l9.1,10.2l1.6,2.3l0.8,3.1l0.7,1.5l1.2,0.7l1.7,0.3l4.2,1.8h0.1l2.1-3.4l1.6-3.4l2.4-3.2l2.8-1.2
		l2.4,1.3l2.4,2.2l2.8,1.6l8.6,3.2l11.5,4.3l3.1,1.1l12.2,4.5l13.7,5.1l2,0.2l2-0.7L242.5,362.9z"/>
	<polygon id="Nueva_Segovia" class="st0" points="159.6,107.7 160.4,107.5 161.2,107.2 162.4,107.1 164.2,108 165.2,109.5 
		166.1,111.3 167.4,112.9 169.3,113.6 171.3,113.5 173,113.7 174.2,115 174.3,115 172.3,116.3 171.4,117.3 170.9,118.7 170.8,122.9 
		170.5,124 170.2,125.1 167.7,129.3 166.9,131.3 166.7,133.5 166.8,138.7 165.9,139.9 164.3,140.7 162.4,142.1 161,144.1 
		160.4,144.6 159.3,144.7 158.5,144.3 157.7,143.6 156.8,143.1 155.3,143 150.9,143.3 150,143.7 149.1,142.6 148.2,143 147.4,144 
		144.8,140.9 142.9,137.5 142.1,136.5 141.4,135.8 138.5,133.4 136.8,133.9 134.9,134.7 134.7,135.1 134.4,135.6 133.9,138.1 
		133.1,139.1 130.5,137.9 128.9,136.9 127.6,136.5 126.6,136.4 123,136.8 120.3,136.9 115.6,135.3 109.4,135.2 108.6,135.3 
		106.7,135.8 105.8,136.7 104.5,137.3 103.4,136.4 102.4,135.8 101,135.3 100.1,134.6 99.3,133.8 98.9,133 97.3,130.5 91.3,129.4 
		89.4,129.4 89,129.7 88.8,130 88.1,130.8 87.4,131.4 87.1,131.1 86.7,130.7 86.6,129.9 86.8,125.2 86.9,123.7 87.1,122.5 
		87.2,121.9 87.6,121.6 88.6,120.9 90.5,119.9 92.3,119.8 96,120.2 103,118.9 106.3,118.7 109.2,120.2 110.7,120.7 111.9,120.3 
		113.1,119.7 114.3,119.5 115.6,120.9 116.1,121.2 116.9,121.5 117.5,121.6 121.9,121.3 123.5,120.9 124.8,120.3 125.8,119.2 
		126.3,117.9 126.9,115.3 128.3,113.1 133.8,107.1 136.8,102.5 137.7,101.9 138.7,101.5 139.7,101 140.7,99.9 141.3,98.8 141.7,98 
		142.1,97.2 143,96.3 144.2,95.7 150.7,94.7 150.7,95.7 149.8,97.6 150,99.9 156,104.3 157.9,106.8 158.5,107.3 	"/>
	<path id="North_Caribbean_Coast_Autonomous_Region" class="st0" d="M410.9,49.6L410.9,49.6L410.9,49.6h-0.2l0.1,0.1l0,0v0.1
		l0.1-0.1L410.9,49.6z M410.5,71.6l0.2-0.2L410.5,71.6L410.5,71.6z M411.7,72.3h0.2v-0.2L411.7,72.3L411.7,72.3z M411,51L411,51
		h-0.2l0.1,0.1l0,0l0,0L411,51L411,51L411,51z M410.2,74.8L410.2,74.8H410l0.1,0.1l0,0V75l0.1-0.1L410.2,74.8L410.2,74.8z
		 M418.2,59.5v-0.2H418L418.2,59.5z M406.5,69.5l0.2-0.1l-0.2-0.1V69.5z M412,73v0.3l0.2-0.1L412,73z M409.7,74.1l0.1,0.1h0.1v-0.1
		H409.7z M407.9,78.3L407.9,78.3v-0.1V78.3z M407.9,77.4l-0.1,0.3h0.2L407.9,77.4z M412.7,73L412.7,73l-0.2-0.1L412.7,73z
		 M416.9,64.9L416.9,64.9h-0.2l0.1,0.1l0,0v0.1l0.1-0.1L416.9,64.9L416.9,64.9z M416.3,65.4l0.2-0.1l-0.2-0.3V65.4z M416.4,64.8
		l0.2-0.2l-0.2-0.1V64.8z M417.4,58.1L417.4,58.1h0.2l-0.2-0.1V58.1z M412.3,76.9L412.3,76.9l-0.2-0.1L412.3,76.9z M417.2,58.9
		L417.2,58.9H417l0.1,0.1l0,0v0.1l0.1-0.1L417.2,58.9L417.2,58.9z M416,58.6l0.2-0.2l-0.2-0.1V58.6z M412.6,73.3v-0.2l-0.2,0.1
		L412.6,73.3z M406.6,69.9L406.6,69.9v-0.1V69.9z M415,75.2h0.3l-0.1-0.3L415,75.2z M412.7,76.5L412.7,76.5l0.1-0.2L412.7,76.5z
		 M407,69.9L407,69.9l-0.1-0.2L407,69.9z M412.1,72.5l-0.1-0.1l-0.1,0.2L412.1,72.5L412.1,72.5z M404.7,71.4L404.7,71.4l0.1-0.2
		L404.7,71.4L404.7,71.4z M392.7,11.9l-1.2,0.2l-2.2,1l-3.8-0.1l-0.4,0.1l-1-0.4l-0.6-0.4l0.1-0.5l1-0.5l-3.8-0.4l-1.5,0.1l-1.3,0.8
		l-0.4-1.2l-0.9-0.6l-1.1-0.4l-1.1-0.9l-0.8,1.5l-1.3,1.5l-1.7,1l-2,0.2l-0.8-0.4l-1-1.6l-0.5-0.4l-1.1-0.2l-0.9,0.1l-0.3,0.4
		l0.6,0.9l-0.4,0.6l-0.1,0.5l-0.1,1.3l-0.8-0.8l-0.5,0.4l-0.1,1l0.3,1.2l-0.5-0.2l-1.3-0.4l0.2,0.3l0.2,0.6l0.2,0.3l-1.2,0.4
		l-2.1,1.7l-2.1,0.8l-0.4,1l-0.2,1.2l-0.4,1.1h-0.6l-0.7-0.9l-1.6-0.5l-1.9-0.1l-1.7,0.2l-1.6,0.8l-0.3,1l0.8,2.5h-0.6l-0.3-0.8
		l-0.6-0.4l-0.9-0.1l-1.1,0.1l0.2,1.4l-1.8,0.7l-4.7,0.3l0.6,1l0.4,0.4l0.7,0.5h-1.6l-1.7,0.5l-1.5,0.8l-1,0.9l-0.5-0.6l-0.3-0.2
		l-0.3-0.1l-0.6-0.3l0.4,0.8l0.1,0.4l-1.1-0.3l-1.4-1.5l-1-0.6l-0.4,2v0.8l0.4,0.7l-8.4,0.5l-1.5-0.2l-0.2-0.7l-0.4-0.2h-1.4
		l-0.9-0.1l-0.3-0.3l-0.2-0.4l-1.9-1.2h-0.6l-0.9,0.8l1,2.1l0.6,0.8l0.7,0.7v0.7l-0.6,0.4h-0.4l-0.4-0.2l-0.7-0.1l-0.8,0.2l-0.4,0.4
		l-0.3,0.4l-0.5,0.3l-2.1,0.6l-1.3,0.1l-1-0.4l-2-2.2l-0.7-0.6l-0.8-0.4l-1.2-0.4l-1.1,0.1l-0.5,1l0.4,4.1L300,40l-1.7,0.9l-0.9-0.1
		l-2.1-0.5l-1.3-0.1l-0.7-0.5l-0.6-2.3l-0.8-0.8l-1.1,1.7l-1.2,2.2l-1.6,1.9l-3.2,1.1l-2.2,1.2l-0.9,0.3l-1.3-0.4l-0.9-0.8l-0.9-0.5
		l-1.3,0.4l0.3-1.7l0.3-0.6l-6.2-0.2l-1.9-0.4l-3.3-1.4l-1.6-0.2l-1.6,0.9l-1.3-3l-0.9-1.5l-1.7-1.2l0.1-1.2l-0.2-1.1l-1.7-0.2v-0.2
		l0.7-0.9l0.3-0.2l-1.3-2.1l-1.9-1.4l-2.2-0.7l-2.2,0.1l-5.1,0.9l-1.4,0.8l-3.9,3.8l-1.5,1.1l-1.3,0.9l-0.2,0.1l-1.2,1.1l-0.8,1.4
		l-0.4,3.3l-0.3,0.5l-0.4,0.2l-1.3,0.4l0.5,0.9l2.4,1.7l-1.9,1.8l-0.5,0.7h2.2l-0.1,0.3h0.4l0.6,0.2l0.2,0.1l0.3,0.2l0.2,0.3
		l0.2,0.4l0.1,0.5v0.6l-0.4,1.3l-0.1,0.5V51v0.4l-0.2,0.9v0.5v0.8l-0.1,0.8l0.1,0.3l0.1,0.2l1.1,0.9l1.3,0.7l0.4,0.4l0.3,0.5
		l0.1,0.7l-0.2,0.9l-1,1.6l-0.1,0.6l0.1,1.9l-0.1,0.4l-0.7,1.2l-0.2,0.6v0.6l0.2,0.6l1.6,2.1l1.4,1.3l1.2,1.5l0.4,0.3l0.6,0.2
		l7.6,0.5l0.2,1.2l-0.1,2.1l-1.9,10.1l-0.3,4.1l0.8,3.2l-0.2,1l-0.8,1.7l-5.2,8.7l-10.8,17.4l-0.4,0.4l-0.4,0.2l-8.1-3.8l-0.3,0.1
		l-10.4,6.5h-0.2l-6.8,1l-0.4,0.5l-0.4,0.8l-0.8,2.1l-0.7,1.1l-0.6,0.7l-0.9,0.6l-0.1,0.5l0.1,0.8l0.7,1.5l0.6,1l0.4,1.2l0.1,0.8
		l-0.9,2.7v1.6v0.4l-0.1,0.8l-0.3,0.7l-0.9,0.8l-4.6,3l-2.6,2.4l-0.5,1.2v3.1l1.8,4l4.3,5.9l1.7,1.7l1.1,0.5l0.4,0.2l0.5,0.4
		l2.4,2.3l0.2,0.1l0.2,0.1h0.3h0.3l0.5-0.1l0.5-0.1h0.3l0.3,0.1l0.6,0.4l1.2,0.6l0.3,0.2l0.2,0.3l0.1,0.8l0.2,0.2l1,0.1l0.6,0.9
		l2.6,1.1l0.9,0.1l2.2-0.5l2.4-1.1l0.8-0.6l0.7-0.9l1.1-2.2l1-3l0.7-1.6l1.1-1.6l2.2-1.3l2.8-0.3l5.7,0.1l1.3-0.1l0.8-0.3l7.7-7.2
		l0.4,0.1l0.3,0.3l0.5,0.9l8.5,10.8l1.6,2.4l22-2.7l11.9-0.1l1.7-0.2l1.1-0.4l1-1.1l0.9-0.6l0.6-0.2h0.6l0.6,0.1l0.5,0.1l0.5,0.3
		l0.6,0.4l1,0.3h0.8l5.1-1.4l1.2-0.1l0.7,0.2l0.2,0.4l1.6,5.2l0.3,0.6l0.5,0.6l0.5,0.1l0.7,0.4l2.1-0.6l1.3,0.3l-0.3-0.4l-0.5-0.9
		l-0.4-0.5l1.6,0.3l1.3,0.5l1-0.2l0.7-1.8l0.6,0.4h0.4l0.8-0.4h0.6l0.8,0.5l0.3-0.4l-0.1-0.9l-0.5-1l0.9,0.2l0.3,0.2l1.3,0.1
		l6.9,0.3l1.6,0.3l0.9,0.4l0.7,0.4l0.9,0.4l1.5,0.4l0.7,0.3l0.3,0.4l-0.1,0.5l-0.2,0.5l-0.3,0.5l-1.6,2l-0.3,0.5l-0.2,0.5l-0.1,0.5
		l0.1,0.5l0.2,0.4l0.4,0.4l6.4,4.7l8.4,4.9l1.6,0.5l3.5-0.2l4.3,0.3l1.6-0.2l0,0l0,0l-2.8-17.3l-0.5-1.1l0.6-0.5l-0.6-1.2l-0.2-2.1
		l0.9-11.3l1.5-5.8l1.8-4.4v-1.7l0.4-2.1l-0.1-4.3l2-10l3.3-11.1l2-8.1l1.2-2.8l1.7-2.4l4.1-2.8l0.6-1.1l0.4-1.5l3.1-3.7l7.1-11.4
		l2.3-5.5l0.4-3l-0.4-3.5L387.4,54l-0.7-4.2l-0.8-1.6l-0.2-0.5l-3.3-15.4l-0.8-0.8l-0.6,0.6l0.1,2l-0.7-1.2l-0.9-0.9l-1-0.3l-1,0.5
		l0.7,0.3l1.6,1l0.6,0.5l-1.3,1.6l-1.3-0.4l-1.2-1.2l-1.1-0.7l-0.6-0.8l-0.9-3.6l-1.2-0.9l-0.3,0.4l-0.8,0.9l0.9-2.1l3.8-4.9
		l1.7-1.6l1-0.6l1.4-0.5l1.2,0.3l0.5,1.8l0.2,1.8l0.9,2.3l0.1,1.7l-0.7-0.8l-0.9-0.3l-1,0.1l-1,0.5v0.5l0.8,0.5l0.3-0.1l0.7-0.4v0.6
		l-0.1,0.4l-0.2,0.4l-0.3,0.5v-0.7l-0.7,0.9l-0.2,0.4l-0.2,0.5l2.9-1.2l1-0.8l0.7-1.1l0.2-0.9l0.2-1.9l0.2-0.9l0.4-0.6l1.1-1.1
		l0.2-0.4l0.3-1.2l0.8-1.5l1-1.3l1.1-0.5l0.6-1l0.8-1.9l1-1l1.3,1.5l0.8-0.8l1.6-0.7l0.6-0.9l-1.1,0.2L392.7,11.9z M379.3,68
		l2.1,0.7l0.9,0.5l0.5,0.6h0.6l-0.4-0.6l-1.1-1.1l-0.2-0.4l0.2-1.1l0.6-0.1l0.7,0.5l1.4,1.6l0.8,1.2l0.4,1.2l-0.5,1.1v0.5l1,1.2
		l0.6,1.6l0.1,1.7l-0.5,1.5l-1.2,1.1l-0.8-0.6l-0.8-1.2l-1.2-1l-0.4,0.4l-0.4,0.1l-1-0.5l-0.4-1.2l-0.1-0.5v-0.7l0.2-0.7l0.4-0.5
		l0.4-0.4l0.2-0.3v-1.5l-0.4-1l-1.3-1.6V68H379.3z M406.1,55.5L406.1,55.5h-0.2l0.1,0.1l0,0v0.1l0.1-0.1L406.1,55.5L406.1,55.5z
		 M402.2,70.6v0.2l0.1,0.1l0.2-0.1l0.1-0.2l-0.1-0.2L402.2,70.6z M427.1,44.7l-0.5,0.5l0.6,0.6L427.1,44.7z M445.1,49.9L445.1,49.9
		L445.1,49.9L445.1,49.9l0.1-0.2l0,0v-0.1l-0.2,0.1L445.1,49.9z M445,74.7L445,74.7v-0.2V74.7z M430.5,50.3L430.5,50.3L430.5,50.3
		l0.1-0.2l0,0V50l-0.2,0.1L430.5,50.3L430.5,50.3z M403.3,63.1L403.3,63.1L403.3,63.1l0.1-0.2l0,0v-0.1l-0.2,0.1L403.3,63.1
		L403.3,63.1z M419.3,58.4l-0.3,0.1v0.1L419.3,58.4z M402.5,70.9h0.2l-0.1-0.2L402.5,70.9z M404.7,71.9l0.2-0.3L404.7,71.9
		L404.7,71.9z M404.3,71.1L404.3,71.1h0.2v-0.3L404.3,71.1z M404.5,65.6v0.3l0.1-0.1L404.5,65.6z M405,71.4l0.2,0.1l0.1-0.2
		l-0.2-0.1L405,71.4z M405.4,61.8L405.4,61.8v-0.1V61.8z M404.2,71.5l0.2,0.2h0.1v-0.2H404.2z M403.5,71.4l-0.2,0.1l0.1,0.1
		L403.5,71.4z M403.5,72L403.5,72h-0.2l0.1,0.1l0,0v0.1l0.1-0.1L403.5,72L403.5,72z M403.5,63.4L403.5,63.4v-0.2V63.4z M404.1,71.6
		L404.1,71.6h-0.2l0.1,0.1l0,0v0.1l0.1-0.1L404.1,71.6L404.1,71.6z M403.7,71.6L403.7,71.6v-0.3V71.6z M418.3,59.7L418.3,59.7
		l0.1-0.1l-0.2-0.1L418.3,59.7z M435.3,42.5l0.4,0.3l0.1-0.1l-0.2-0.3L435.3,42.5z M434,60.3L434,60.3L434,60.3v-0.2V60.3z
		 M434.1,59.8L434,60h0.1V59.8z M436.1,46.9L436.1,46.9l0.2-0.2h-0.1L436.1,46.9z M436,43.5L436,43.5h-0.2l0.1,0.1l0,0l0,0L436,43.5
		L436,43.5L436,43.5z M434,28.7l-0.1-0.2l-0.1,0.2H434L434,28.7L434,28.7z M433,60.1l0.1-0.1h-0.2L433,60.1z M432.9,59.6L432.9,59.6
		L432.9,59.6h-0.2l0.1,0.1l0,0v0.1l0.1-0.1L432.9,59.6z M432.6,61l0.1-0.1l-0.1-0.1V61z M437,50.9l0.5,0.7l0.3,0.3l-0.5-1.7
		L437,50.9z M433.8,48.3L433.8,48.3l0.2-0.2h-0.2L433.8,48.3z M433.9,60v-0.2V60L433.9,60z M444.5,74.4L444.5,74.4L444.5,74.4h0.2
		H444.5L444.5,74.4z M443.9,50.9L443.9,50.9l-0.2-0.2L443.9,50.9z M444.2,50.9l0.3-0.1l-0.3-0.2V50.9z M445,78.7l0.1,0.4l0.3-0.3
		L445,78.7z M444.9,49.2v0.3h0.1L444.9,49.2z M441.7,71.5l0.2,0.6l0.8-1.3l-0.6,0.1L441.7,71.5z M441.6,70l-0.5,0.7l0.8,0.2
		L441.6,70z M438.7,44.6L438.7,44.6h-0.2l0.1,0.1l0,0v0.1l0.1-0.1L438.7,44.6L438.7,44.6z M443.4,50.9L443.4,50.9v-0.2l0,0v-0.1
		l-0.2,0.1l0.1,0.1L443.4,50.9L443.4,50.9L443.4,50.9z M443.7,49.7L443.7,49.7L443.7,49.7l0.1-0.2l0,0v-0.1l-0.2,0.1L443.7,49.7
		L443.7,49.7z M443.4,50.9l-0.1,0.2h0.2L443.4,50.9L443.4,50.9z M418.7,63l0.9-0.3l-0.9-0.7V63z M422.9,83.8L422.9,83.8l-0.1-0.2
		L422.9,83.8z M422.9,57.1L422.9,57.1l0.2-0.2h-0.2V57.1z M423.1,56.5L423.1,56.5v-0.2V56.5z M422.6,56.1l0.1,0.3l0.1-0.1
		L422.6,56.1z M423,83.2L423,83.2h-0.2l0.1,0.1l0,0v0.1l0.1-0.1L423,83.2L423,83.2z M419.8,74l0.2-0.1L419.8,74L419.8,74z
		 M418.9,74.1L418.9,74.1L419,74l-0.1-0.1V74.1z M419.1,74.3L419.1,74.3l0.1-0.1L419.1,74.3z M422.6,56.8L422.6,56.8h-0.2l0.1,0.1
		l0,0V57l0.1-0.1L422.6,56.8L422.6,56.8z M424.2,84.6L424.2,84.6H424l0.1,0.1l0,0v0.1l0.1-0.1L424.2,84.6L424.2,84.6z M422.1,56.4
		L422.1,56.4h-0.2l0.1,0.1l0,0v0.1l0.1-0.1L422.1,56.4L422.1,56.4z M426.9,86.9L426.9,86.9h-0.2l0.1,0.1l0,0l0,0L426.9,86.9
		L426.9,86.9L426.9,86.9z M429.8,85.1l-0.3,0.1l0.2,0.1L429.8,85.1z M430.2,62.5h-1.1l-1.4,0.7L427,64l-0.3,1l-0.6,1l-1.4,0.8v0.3
		l-0.1,0.2h-0.2h-0.1H424h0.4l4.5,0.4l1.6-0.7l0.6-2.4l-0.3-1.4L430.2,62.5z M429.6,85.6l0.2,0.1l0.1-0.1l-0.3-0.2V85.6z
		 M431.6,60.9L431.6,60.9l0.1-0.2L431.6,60.9L431.6,60.9z M432,59.6L432,59.6h0.2v-0.2H432V59.6z M432.5,59.8L432.5,59.8l-0.1-0.1
		L432.5,59.8z M429.1,87.5l0.2-0.1v-0.1L429.1,87.5z M424.8,85.9L425,86v-0.1l-0.1-0.1L424.8,85.9z M424.5,84.7L424.5,84.7v0.1V84.7
		z M428,86.8v-0.2V86.8L428,86.8z M424.5,85.1L424.5,85.1h-0.2l0.1,0.1l0,0v0.1l0.1-0.1L424.5,85.1L424.5,85.1z"/>
	<polygon id="Matagalpa" class="st0" points="258.7,168.3 255.1,173.2 254.8,173.7 254.5,174.3 254.7,174.3 254.9,174.5 255.5,175 
		255.7,175.1 255.9,175.2 256.2,175.3 256.4,175.4 256.5,175.5 256.9,175.8 257.5,176.6 257.6,176.8 258.2,178.5 259.4,181.1 
		259.7,181.4 259.9,181.8 260.1,181.9 260.3,182 260.5,182.1 260.8,182.1 261.1,182.1 261.3,182.1 261.6,182 262.5,181.5 
		262.7,181.4 263,181.3 263.2,181.3 263.4,181.3 263.4,181.4 263,181.6 262.5,182.1 262.4,182.1 260.6,184.1 260.3,184.8 
		259.7,187.7 259.6,189 259.5,189.3 259.2,190.2 259,191.5 258.8,191.6 258.4,191.5 257.9,191.7 257,192.4 256.6,192.3 256.1,191.9 
		255,191.7 253.8,191.7 252.2,192.1 251.2,192.3 250,193.1 248.2,194.8 246.2,196.2 244.5,195.8 243.9,197.3 243,198.6 242.5,199.1 
		241.5,199.8 241.1,200.2 240,199.8 235,198.9 234.1,199 231.8,199.7 230.6,200 229.6,200 228.6,199.9 227.1,199.4 226.4,199.3 
		225.6,199.4 225.3,199.8 225.3,201.2 225,202.1 224,202.9 223.2,203.2 222.2,203.2 221.2,203 220,203.1 219.2,203.5 218.7,204.1 
		218.3,204.8 218.2,205.6 218.3,206.5 219.1,208.1 219.5,209.1 220.1,212.1 222.3,216.8 222.4,217.7 222.3,218.6 222.1,219.3 
		221.7,219.8 221.2,219.8 220.8,219.5 220,218.9 219.2,218.6 218.8,218.9 218.6,219.8 218,219.6 215.4,216.7 214.4,216.5 213,217.5 
		212.4,217.5 212.9,215.3 213,215 212.4,214.5 211,214.5 209.4,213.6 206.6,212.6 206,212.3 205.7,211.5 205,210.6 204.1,209.9 
		203.4,209.7 202.9,209.6 202.2,210 202.1,210.2 202,210.6 201.8,211 201.5,211.3 201.3,211.4 201,211.7 200.6,211.9 199.9,212.1 
		199.7,212.2 199.6,212.3 199.5,212.5 199,212.7 198.1,212.8 192.7,212.5 192.4,212.6 192.2,212.6 192,212.8 191.9,213 190.8,215.2 
		190.5,215.5 190.2,215.7 189.7,215.7 188,215.8 187.6,215.8 186.9,216.2 185.1,216.6 184.1,216.8 183.1,217.6 182.7,217.8 
		182.5,217.8 182,217.5 180.7,217.3 179.5,216.9 164.7,220 163.4,220.7 161.9,223.9 157.8,226.2 157.3,226.5 154.8,228.8 
		153.4,228.6 148.2,226.5 147.3,226 146.4,225.2 145.1,223.7 143.8,222.6 142.3,222.1 127.9,218.9 128.7,211.2 129.7,202.5 
		130,200.4 130.5,197.2 131.8,194.4 132.1,194 132.8,193.4 134.7,192.3 135.7,192 137.8,191.5 138.9,191.1 139.6,190.6 140,190.1 
		140.2,189.7 140.8,187.4 144,183 144.4,183 145.6,183 146.4,183.3 147.6,184.1 148.9,185.4 151.8,187.7 152.9,186.3 153.4,186.1 
		154.4,185.9 157.5,186 158.5,185.9 159.4,185.6 161.3,184.3 166.1,179.7 170,176.3 171,175.8 174.2,173 180.4,165.6 181.9,163.1 
		183.1,161.1 184.3,159.7 186.1,158.5 188.1,158.5 189.7,157.8 194.5,154.7 196.3,158.7 200.6,164.6 202.3,166.2 203.4,166.7 
		203.8,166.9 204.3,167.3 206.7,169.6 206.9,169.7 207.2,169.8 207.4,169.8 207.7,169.8 208.2,169.8 208.7,169.6 208.9,169.6 
		209.3,169.7 209.9,170.2 211.1,170.8 211.4,171 211.6,171.3 211.7,172.1 211.8,172.2 212.9,172.4 213.5,173.2 216.1,174.3 
		217,174.4 219.2,173.9 221.7,172.8 222.5,172.1 223.2,171.3 224.3,169.1 225.3,166 226,164.5 227.1,162.9 229.2,161.6 232.1,161.3 
		237.7,161.5 239,161.3 239.8,161 247.5,153.8 247.9,153.9 248.2,154.2 248.7,155.1 257.2,165.9 	"/>
	<polygon id="Masaya" class="st0" points="152.4,261.8 155.2,265 155.5,266.4 152.1,274 149,280.8 148.7,281.4 147.9,283.2 
		146.3,286.8 145.5,286.6 141,285.3 140.8,285.1 139.7,283.5 137.2,282.3 129.4,279.2 128.5,278.1 130.5,275.6 132.8,277.4 
		133.4,277.7 134.4,277.9 135.1,277.9 135.9,277.7 136.6,277.3 137.1,276.8 137.6,276.2 138.5,274.7 138.7,272.7 138.4,272.2 
		138,271.6 136.7,270.3 136.5,269.2 141.6,264.1 143.2,262.9 145.6,262.5 148.6,261.3 150,261.1 150.3,261.1 150.4,261.2 
		150.9,261.4 	"/>
	<polygon id="Managua" class="st0" points="166.9,251.7 159.5,244.6 159.2,244.2 159.1,243.5 159.1,242.1 159.2,240.4 159.1,239.8 
		158.8,239.3 156.7,237 155.6,235.5 155,234.6 154.6,233.3 154.3,230.4 154.8,228.8 153.4,228.6 148.2,226.5 147.3,226 146.4,225.2 
		145.1,223.7 143.8,222.6 142.3,222.1 127.9,218.9 124.5,221 123.3,222.1 122.6,223.1 122.3,223.6 122.2,224 122.3,224.3 
		122.1,225.2 122.1,225.6 122.2,225.8 122.1,226.2 122,226.8 121.5,228.3 121.4,228.7 121.5,228.9 121.6,229.4 121.7,229.6 
		122.5,230.8 122.6,230.8 123.1,231.2 123.2,231.4 123.2,231.6 123.2,232.2 123.3,232.5 123.3,232.5 124.3,231.5 125.3,230.7 
		126.7,231.2 127.2,230.7 127.8,230.6 128.4,230.8 129,231.2 129.6,235.9 129.3,236.6 129.6,237.1 132,239.6 132.8,240.1 
		133.7,241.4 135.2,247.9 135.4,250.2 137.3,248.5 139.5,245.9 141.9,244.3 144.2,245.6 144.7,247.2 144.7,249.2 143.7,255.7 
		143.2,257.5 142.4,258.6 139.8,259.6 126.9,260 125.6,259.7 125.3,259.7 125.2,259.7 124.9,259.3 124.8,258.8 124.8,258.2 
		125,257.7 125.2,257.5 126.4,257 127.3,256 127.8,254.5 127.8,252.7 126.6,249.8 124.2,248.8 121.4,249.3 119,250.9 118.1,252.1 
		117.3,252.8 116.2,252.9 113.5,250.9 108.1,248.7 107.8,249.1 107.6,250.5 107.6,256.6 107.7,257.2 108,257.7 108.3,258 
		108.8,258.3 109.3,258.9 109.4,260.5 108.3,262.9 106.7,264.8 103.5,267.3 103,267.5 102.7,267.5 101.5,267.3 100.3,266.8 
		100.2,266.8 99.9,266.8 99.7,266.8 99.5,266.9 98.2,267.3 97.6,267.5 97.3,267.6 97.1,267.8 96.9,267.9 96.9,268.2 96.8,268.4 
		96.9,268.7 97,269.1 97.6,270.3 98,270.8 98.1,271 98.2,271.3 98.2,271.5 98.1,271.8 97.8,272.4 97.5,272.7 95.4,274.3 95.4,274.3 
		95.7,274.7 97.8,276.4 98.8,277.4 99.2,278.6 99.5,279.9 100.9,282.6 102.3,284.5 104.5,286.8 105.4,287.3 106.3,288 108.6,293.2 
		109.7,294.6 109.7,294.6 111.8,292.5 112.7,292 113.4,292 113.9,291.9 114.8,291.7 115.3,291.5 115.6,291.3 116.7,290.3 117.6,289 
		119.9,287.3 120.5,286.7 122.2,284 127.5,279.6 128.5,278.1 130.5,275.6 132.8,277.4 133.4,277.7 134.4,277.9 135.1,277.9 
		135.9,277.7 136.6,277.3 137.1,276.8 137.6,276.2 138.5,274.7 138.7,272.7 138.4,272.2 138,271.6 136.7,270.3 136.5,269.2 
		141.6,264.1 143.2,262.9 145.6,262.5 148.6,261.3 150,261.1 150.3,261.1 150.4,261.2 150.9,261.4 152.4,261.8 159.6,258.6 
		162.2,256.6 162.9,256.4 163.6,256.4 165.1,257 165.5,254.6 166.9,252.5 167.1,252 	"/>
	<polygon id="Madriz" class="st0" points="104.5,137.3 105.8,136.7 106.7,135.8 108.6,135.3 109.4,135.2 115.6,135.3 120.3,136.9 
		123,136.8 126.6,136.4 127.6,136.5 128.9,136.9 130.5,137.9 133.1,139.1 133.9,138.1 134.4,135.6 134.7,135.1 134.9,134.7 
		136.8,133.9 138.5,133.4 141.4,135.8 142.1,136.5 142.9,137.5 144.8,140.9 147.4,144 146.6,145 143.3,147.6 142.4,148.6 
		141.4,148.1 140.2,148.2 138.8,148.4 137.5,149.6 134.3,153 133.6,151.8 132.8,149.9 132.5,149.3 130.9,148.8 126.1,149.1 
		119.6,151.2 116,151.8 112.3,150 111.1,149.4 110.2,149.1 107.9,149.5 104.5,152.4 101,158.6 100.3,160.1 98.7,162.4 91.6,169.6 
		92.4,167.1 92.5,166.9 92.6,166.5 92.6,165.9 92.5,165.3 92.3,164.5 91.8,164.1 90.2,163.8 90.1,163.7 90.7,163.2 91.9,162.2 
		92.5,161 92.7,159.7 92.2,157.2 92,156.6 91.4,155.5 90.9,155 90.3,154.9 89.8,154.6 89.4,153.7 89.6,152.5 90.7,150.1 90.8,148.7 
		88,138.2 88,136.7 88.5,133.9 88.5,132.5 88.1,131.9 87.4,131.4 88.1,130.8 88.8,130 89,129.7 89.4,129.4 91.3,129.4 97.3,130.5 
		98.9,133 99.3,133.8 100.1,134.6 101,135.3 102.4,135.8 103.4,136.4 	"/>
	<polygon id="León" class="st0" points="119.6,197.3 116.7,195.9 115.9,194.4 115.8,193.6 115.9,192.6 117.8,189.3 118,186.5 
		117.4,184.4 117,183.6 116.1,182.4 113.9,178.7 112.3,177.1 111.7,176.8 110.6,176.5 105.9,177.5 100.3,179.4 98.5,179.8 
		97.5,179.9 95.9,179.1 94.5,178.6 93.4,178.6 92.6,178.7 91.1,179.2 91.9,182.2 93.7,186.4 94.9,188.3 95.9,190.7 96.7,201.3 
		96.5,204 95.4,206.5 93.9,207.4 93.2,207.7 92,208 85.9,208.8 84.9,209.3 84.3,209.9 83.2,212.2 81.5,214.2 79.9,214.9 77.8,217.2 
		75.6,219.5 74,221.1 73.6,221.7 73,223.4 71.2,226.2 66.8,230.8 66,231.3 64.6,232.2 63.1,232.8 58.9,233.3 57,234.4 57,234.4 
		59,236.6 57.1,236.2 55.2,235.4 53.5,234.3 52.5,233 52.8,235 58.6,237.7 61.2,240.5 66,243.3 67.1,244.6 84.6,255.3 86.7,257.1 
		87.5,258.5 90.5,266.6 93.7,272.2 95.4,274.3 95.4,274.3 97.5,272.7 97.8,272.4 98.1,271.8 98.2,271.5 98.2,271.3 98.1,271 
		98,270.8 97.6,270.3 97,269.1 96.9,268.7 96.8,268.4 96.9,268.2 96.9,267.9 97.1,267.8 97.3,267.6 97.6,267.5 98.2,267.3 
		99.5,266.9 99.7,266.8 99.9,266.8 100.2,266.8 100.3,266.8 101.5,267.3 102.7,267.5 103,267.5 103.5,267.3 106.7,264.8 
		108.3,262.9 109.4,260.5 109.3,258.9 108.8,258.3 108.3,258 108,257.7 107.7,257.2 107.6,256.6 107.6,250.5 107.8,249.1 
		108.1,248.7 105.9,247.8 103.4,246.3 101.9,244.2 101.6,240.7 101.7,239 101.8,238.3 102.2,237.8 102.8,237.4 103.3,237.5 
		103.7,237.9 103.9,238.6 104.6,239.4 106.1,240 108,240.3 109.7,240.1 111.7,238.8 113,236.8 114.4,235 117,234.2 118.3,234 
		120.2,233.2 121.7,233 123.3,232.5 123.3,232.5 123.3,232.5 123.2,232.2 123.2,231.6 123.2,231.4 123.1,231.2 122.6,230.8 
		122.5,230.8 121.7,229.6 121.6,229.4 121.5,228.9 121.4,228.7 121.5,228.3 122,226.8 122.1,226.2 122.2,225.8 122.1,225.6 
		122.1,225.2 122.3,224.3 122.2,224 122.3,223.6 122.6,223.1 123.3,222.1 124.5,221 127.9,218.9 128.7,211.2 129.7,202.5 130,200.4 
			"/>
	<polygon id="Jinotega" class="st0" points="232.4,122.8 224.2,119 223.9,119.1 213.5,125.6 213.4,125.6 206.5,126.6 206.1,127.1 
		205.7,127.9 204.9,130 204.2,131 203.6,131.7 202.8,132.3 202.6,132.8 202.7,133.6 203.4,135.1 203.9,136.1 204.3,137.3 
		204.5,138.1 203.6,140.8 203.5,142.4 203.6,142.8 203.5,143.6 203.2,144.3 202.3,145.1 197.6,148.1 195,150.5 194.5,151.6 
		194.5,154.7 189.7,157.8 188.1,158.5 186.1,158.5 184.3,159.7 183.1,161.1 181.9,163.1 180.4,165.6 174.2,173 171,175.8 170,176.3 
		166.1,179.7 161.3,184.3 159.4,185.6 158.5,185.9 157.5,186 154.4,185.9 153.4,186.1 152.9,186.3 151.8,187.7 148.9,185.4 
		147.6,184.1 146.4,183.3 145.6,183 144.4,183 144,183 142.6,181.4 138.9,179.2 132.5,172.8 131.9,171.8 131.4,170.6 132.4,168.9 
		132.6,167.5 132.4,166.4 133.6,162.8 132.8,159 132.9,157.1 133.1,155.7 133.6,154.3 134.3,153 137.5,149.6 138.8,148.4 
		140.2,148.2 141.4,148.1 142.4,148.6 143.3,147.6 146.6,145 147.4,144 148.2,143 149.1,142.6 150,143.7 150.9,143.3 155.3,143 
		156.8,143.1 157.7,143.6 158.5,144.3 159.3,144.7 160.4,144.6 161,144.1 162.4,142.1 164.3,140.7 165.9,139.9 166.8,138.7 
		166.7,133.5 166.9,131.3 167.7,129.3 170.2,125.1 170.5,124 170.8,122.9 170.9,118.7 171.4,117.3 172.3,116.3 174.3,115 174.4,115 
		174.6,114.9 175.1,114.3 175.9,112.9 176,111.6 175.6,110.5 174.3,110.1 174,109.4 174.3,107.7 175.1,105.1 175.3,103.1 
		175.7,102.7 176.5,102.9 178.1,103 179.1,102.4 180.9,100.9 181.6,101.2 182.1,101.2 182.1,100.8 182.2,100.7 182.4,100.7 
		182.7,100.6 182.4,99.6 185.4,98.7 186.2,97.9 187,96.6 188.9,96 189.6,95.9 191,95.6 192.6,95.1 193.4,93.9 193.6,92.5 
		194.1,91.4 197.2,90.5 198.6,89.7 200.8,87.9 201.8,86.7 202.8,85 203.5,83.3 204.1,81.1 204.9,79.7 205.9,78.4 206.7,77.6 
		207.1,77.6 208,77.7 208.3,77.6 208.6,77.3 208.8,76.7 209.4,76 209.8,75.4 210.2,74.9 211,74.7 213,73.7 213.9,73.5 217.2,73.5 
		219.3,73.1 221.4,72.4 223.1,71.3 224.1,69.9 224,67.9 223,66.1 221.4,64.7 220.1,63.8 222.4,62 222.5,61.5 222.3,60.1 222.4,59.6 
		224.4,57.5 224.7,56.9 224.8,52.5 225.2,50 225.9,48.8 227.4,49.2 228.8,50.7 230.2,51.8 232,50.9 235.1,47.8 235.6,46.7 236,46.7 
		236.6,46.8 236.8,47 237.1,47.2 237.3,47.5 237.5,47.9 237.6,48.4 237.6,49 237.2,50.3 237.1,50.8 237.1,51.3 237.1,51.7 
		236.9,52.6 236.9,53.1 236.9,53.9 236.8,54.7 236.9,55 237,55.2 238.2,56.1 239.4,56.8 239.8,57.2 240.1,57.7 240.3,58.4 
		240.1,59.2 239.2,60.9 239,61.4 239.1,63.4 239,63.8 238.4,65 238.2,65.6 238.2,66.2 238.5,66.8 240.1,68.9 241.5,70.2 242.7,71.7 
		243.2,72 243.8,72.2 251.4,72.7 251.6,73.9 251.4,76 249.6,86 249.3,90.1 250.1,93.3 249.9,94.4 249.2,96.1 244,104.8 233.2,122.2 
		232.7,122.6 	"/>
	<path id="Granada" class="st0" d="M164,300.3h-0.6l-0.1,1.1l0.1,0.6h0.7l0.3-0.3l0.1-0.4l-0.2-0.5L164,300.3z M161.7,289.2
		l-0.6-2.2l-1.5-0.9l-1-0.8l0.8-1.5l1.2-0.6l0.5,1.8h0.6l-0.9-2.6l-0.8-0.8l-1.6-0.3l-0.6-0.7l-0.1-1.6l0.2-1.8l0.2-1.2l1-2.7
		l2.7-5.4l1.6-2l2.3,0.7l2.3-0.5l1.9-1.3l0.9-0.4l-2.3-2l-1.4-0.5l-0.7-0.5l-0.5-0.6l-0.1-0.7l-0.1-1.3l-0.5-1.7l-1.5-0.6h-0.6
		l-0.7,0.3l-2.7,1.9l-7.2,3.2l2.8,3.2l0.3,1.3l-3.4,7.6l-3.1,6.8l-0.3,0.7l-0.8,1.8l-1.6,3.6l-0.4,0.9l-1.7,3.2l-0.5,2.2l0.3,2.1
		l0.4,1.5v1l-0.2,0.8l-1,1.4l-0.8,1.6l-0.3,2.7l0.1,1.3l0.2,0.8l1.5,1.9l2,0.5l0.6-0.1l0.3-0.3l2.4-1.2l0.3-0.2l0.9-1.5l1.3-2.9
		l0.2-0.3l0.2-0.1h0.2h0.1l0.4,0.1l0.4,0.2l0.3,0.4l0.8,0.9l0.4,0.1l3.8-1l2.8-0.8h0.3l-1.9-2l-0.6-1.2l0.3-0.8l0.6-0.9l0.7-0.7
		l1.4-0.7v-1l-0.6-1.6L161.7,289.2z M170.2,295.1l-0.6-0.7l-2,0.6l-1,0.1l-0.8-0.7l-2.3,1.8l-0.2,0.9l0.1,0.6l0.5,0.6l0.8,0.9
		l-0.5,0.1l-1.2,0.5l8.2-0.3l-0.4-2.8L170.2,295.1z M181.7,270.3h-0.2l0,0l0.3,0.4L181.7,270.3z"/>
	<polygon id="Estelí" class="st0" points="134.3,153 133.6,154.3 133.1,155.7 132.9,157.1 132.8,159 133.6,162.8 132.4,166.4 
		132.6,167.5 132.4,168.9 131.4,170.6 131.9,171.8 132.5,172.8 138.9,179.2 142.6,181.4 144,183 140.8,187.4 140.2,189.7 140,190.1 
		139.6,190.6 138.9,191.1 137.8,191.5 135.7,192 134.7,192.3 132.8,193.4 132.1,194 131.8,194.4 130.5,197.2 130,200.4 119.6,197.3 
		116.7,195.9 115.9,194.4 115.8,193.6 115.9,192.6 117.8,189.3 118,186.5 117.4,184.4 117,183.6 116.1,182.4 113.9,178.7 
		112.3,177.1 111.7,176.8 110.6,176.5 105.9,177.5 100.3,179.4 98.5,179.8 97.5,179.9 95.9,179.1 94.5,178.6 93.4,178.6 92.6,178.7 
		91.1,179.2 90.1,174.1 90.4,171.3 90.6,170.5 90.7,170.4 91.6,169.6 98.7,162.4 100.3,160.1 101,158.6 104.5,152.4 107.9,149.5 
		110.2,149.1 111.1,149.4 112.3,150 116,151.8 119.6,151.2 126.1,149.1 130.9,148.8 132.5,149.3 132.8,149.9 133.6,151.8 	"/>
	<polygon id="Chontales" class="st0" points="270,283.7 269.9,283.4 269.8,283.1 270.5,282.5 273.8,281.1 262.9,275.8 262.3,274.9 
		256.9,261.3 255.8,256.1 255.7,253.2 256.2,251.2 256,249.9 252.9,244.6 252.4,244 251.8,243.5 251.2,242.8 250.6,241.8 
		250.2,240.4 249.8,237.6 249.9,236.1 250.2,235 250.6,233.8 250.7,233.3 250.6,232.7 250,231.8 248.9,230.7 247.1,228 245.3,223.8 
		244.8,223 242.3,220.7 240.3,217.7 239.2,219.9 235.9,224.7 235.6,225.4 235.4,226.1 235.3,227.1 235.2,230.3 235,231.2 
		234.5,232.2 233.1,234 232.2,235 230.9,235.9 228.4,237.2 227.2,237.4 226.7,237.4 225.8,237.3 224.9,237.5 223.6,238 218.7,241.5 
		217.7,242 214.2,243.2 209.6,243.7 203.5,244.8 199.8,244.7 197.3,244.6 195.2,244.3 194.3,244.2 193.1,244.6 189.9,246.2 
		187.7,247.8 187.3,248.2 186.6,249.1 186.4,249.6 186.3,250.1 186.3,252.2 186.5,253.8 186.5,254.4 186.3,255 184.6,258.9 
		184.5,259.1 184.4,259.2 184.3,259.4 183.5,260.7 183.1,261.5 181.7,270.3 181.8,270.7 181.9,270.8 182.8,271 183.8,270.9 
		184.4,270.6 184.4,271.2 185,271.2 186.9,269.8 189.6,271.9 193.5,276.5 194.1,277.1 195.7,279.6 196.7,281.9 200.8,286.1 
		202.7,284.2 206.3,285 210.1,286.9 212.4,288.5 213.1,289.5 213.7,290.9 214.4,292.1 215.7,292.7 216.7,292.8 217.3,293.3 
		218.5,294.7 219.2,295.1 221.1,295.4 221.7,295.6 225,300.8 228.2,304.5 228.4,304.9 228.6,305.5 228.8,305.8 229,306 229.2,306 
		230.5,303.7 230.7,303.5 231.1,303.1 232.4,302.5 234.1,301.3 234.9,300.8 235.4,300.6 235.8,300.8 236,300.8 236.4,300.8 
		238,300.2 238.5,299.9 238.8,299.7 239.1,299.2 239.5,298.7 240.1,298 240.2,297.9 240.3,297.7 240.4,297.5 240.8,297.1 
		240.9,296.8 241,296.5 241,296.4 241.2,295.8 242.5,293.9 246.1,293.1 248.3,291.6 253.9,286.4 254.2,286 254.6,285.9 255,285.8 
		261.3,285.9 263,285.6 263.4,285.6 264.1,285.8 264.5,285.8 265.8,285.7 266.1,285.7 266.4,285.8 266.8,286 267.7,286.2 271,286.3 
		270.6,284.8 	"/>
	<polygon id="Chinandega" class="st0" points="88.7,164.3 89.5,164.1 90.1,163.7 90.2,163.8 91.8,164.1 92.3,164.5 92.5,165.3 
		92.6,165.9 92.6,166.5 92.5,166.9 92.4,167.1 91.6,169.6 90.7,170.4 90.6,170.5 90.4,171.3 90.1,174.1 91.1,179.2 91.9,182.2 
		93.7,186.4 94.9,188.3 95.9,190.7 96.7,201.3 96.5,204 95.4,206.5 93.9,207.4 93.2,207.7 92,208 85.9,208.8 84.9,209.3 84.3,209.9 
		83.2,212.2 81.5,214.2 79.9,214.9 77.8,217.2 75.6,219.5 74,221.1 73.6,221.7 73,223.4 71.2,226.2 66.8,230.8 66,231.3 64.6,232.2 
		63.1,232.8 58.9,233.3 57,234.4 57,234.4 56.9,234.2 55.8,233.3 54.6,233 53.9,232.4 52,228.8 51.4,228.8 52.3,232 50.9,230.8 
		48.7,228 47.1,226.4 46,225.9 40.7,221.8 40,221.1 39.6,220.2 39.1,218.7 38.9,219.1 38.2,220 38,220.4 28.6,209.5 27.5,207.2 
		27.9,207.6 28.2,207.9 29.2,208.4 29.2,207.9 28.8,207.7 28.1,207.2 28.1,206.7 27.9,205.8 26.4,204.6 24.5,203.6 22.8,203.1 
		22.8,203.6 25.1,205.1 26.2,206.2 26.3,207.2 25.4,207.1 24.2,206.1 22.3,204.3 12.3,198.3 10.2,196.4 9,194.3 8.9,191.7 
		10.5,188.7 12.9,186.6 15.4,185 17.2,183.1 17.6,179.7 18.2,179.7 17.9,181.6 17.6,182.1 18.6,182.1 19.7,182.3 20.7,182.6 
		21.1,183 21.5,183.2 23.7,185.1 24.2,185.4 25.8,187.5 26.1,187.8 27.2,188.4 27.5,188.7 27.6,189.3 27.4,190.6 27.5,191.1 
		30.3,193.9 33.9,194.7 42.7,194.2 42.7,193.5 38.2,193.6 36,193.4 35.1,192.6 35.9,191.2 40,189.1 40.6,188.7 40.6,188.7 
		60.1,187.5 61.4,187.6 63.3,188.8 64.3,188.9 64.8,187.5 66.6,186.6 68.8,185.2 69.7,184.2 71.7,181 72.2,180.7 73.5,180 
		73.9,179.6 74.1,178.7 73.8,178.4 73.3,178.2 73.1,177.6 73.8,173.1 73.7,172.8 73,171.4 72.9,170.9 73,170.7 73.6,168.2 
		74.2,167.1 74.9,166.2 79,162.7 80.1,161.9 81.5,161.5 83,161.6 87.9,164 	"/>
	<polygon id="Carazo" class="st0" points="146.3,286.8 145.9,287.8 144.1,290.9 143.6,293.1 143.9,295.3 144.3,296.7 144.3,297.8 
		144.1,298.5 143.1,299.9 142.3,301.5 142,304.2 142.1,305.5 142.3,306.3 143.8,308.2 140.8,310.2 140.6,310.5 140,311.6 
		137.5,316.1 137.5,316.1 137.5,315.9 134.8,314.7 131.7,311.6 123.8,308.1 122.5,307.2 121.3,305.8 120.4,303.1 110.2,295.3 
		109.7,294.6 109.7,294.6 111.8,292.5 112.7,292 113.4,292 113.9,291.9 114.8,291.7 115.3,291.5 115.6,291.3 116.7,290.3 117.6,289 
		119.9,287.3 120.5,286.7 122.2,284 127.5,279.6 128.5,278.1 129.4,279.2 137.2,282.3 139.7,283.5 140.8,285.1 141,285.3 
		145.5,286.6 	"/>
	<polygon id="Boaco" class="st0" points="239.8,217.3 238.8,216.8 238.7,216.5 238.7,216.1 239,214.7 238.8,213.1 238.5,212 
		237.7,210.6 237.2,210 236.7,209.6 236,209.2 235.3,208.1 234.9,207.9 232.4,206 230.8,205.2 229.2,205.2 227.6,206.7 227.1,207.7 
		226.8,210.2 226.5,211.4 226.2,211.4 225.5,211.8 224.9,212.4 224.9,212.6 224.6,212.8 223.5,213.9 224.4,215.3 224.4,216.6 
		223.8,217.3 222.3,216.8 222.4,217.7 222.3,218.6 222.1,219.3 221.7,219.8 221.2,219.8 220.8,219.5 220,218.9 219.2,218.6 
		218.8,218.9 218.6,219.8 218,219.6 215.4,216.7 214.4,216.5 213,217.5 212.4,217.5 212.9,215.3 213,215 212.4,214.5 211,214.5 
		209.4,213.6 206.6,212.6 206,212.3 205.7,211.5 205,210.6 204.1,209.9 203.4,209.7 202.9,209.6 202.2,210 202.1,210.2 202,210.6 
		201.8,211 201.5,211.3 201.3,211.4 201,211.7 200.6,211.9 199.9,212.1 199.7,212.2 199.6,212.3 199.5,212.5 199,212.7 198.1,212.8 
		192.7,212.5 192.4,212.6 192.2,212.6 192,212.8 191.9,213 190.8,215.2 190.5,215.5 190.2,215.7 189.7,215.7 188,215.8 187.6,215.8 
		186.9,216.2 185.1,216.6 184.1,216.8 183.1,217.6 182.7,217.8 182.5,217.8 182,217.5 180.7,217.3 179.5,216.9 164.7,220 
		163.4,220.7 161.9,223.9 157.8,226.2 157.3,226.5 154.8,228.8 154.3,230.4 154.6,233.3 155,234.6 155.6,235.5 156.7,237 
		158.8,239.3 159.1,239.8 159.2,240.4 159.1,242.1 159.1,243.5 159.2,244.2 159.5,244.6 166.9,251.7 167.1,252 166.9,252.5 
		165.5,254.6 165.1,257 165.6,258.7 165.8,260 165.9,260.7 166.3,261.2 167.1,261.8 168.4,262.3 170.7,264.3 171.6,263.9 171.6,264 
		172.9,265.1 178.6,268.1 180.6,268.9 181.3,269.3 181.5,270.3 181.7,270.3 183.1,261.5 183.5,260.7 184.3,259.4 184.4,259.2 
		184.5,259.1 184.6,258.9 186.3,255 186.5,254.4 186.5,253.8 186.3,252.2 186.3,250.1 186.4,249.6 186.6,249.1 187.3,248.2 
		187.7,247.8 189.9,246.2 193.1,244.6 194.3,244.2 195.2,244.3 197.3,244.6 199.8,244.7 203.5,244.8 209.6,243.7 214.2,243.2 
		217.7,242 218.7,241.5 223.6,238 224.9,237.5 225.8,237.3 226.7,237.4 227.2,237.4 228.4,237.2 230.9,235.9 232.2,235 233.1,234 
		234.5,232.2 235,231.2 235.2,230.3 235.3,227.1 235.4,226.1 235.6,225.4 235.9,224.7 239.2,219.9 240.3,217.7 	"/>
</g>
<g id="copyright">
</g>
</svg>
