<svg height="512" viewBox="0 0 56 56" width="512" xmlns="http://www.w3.org/2000/svg"><g id="Page-1" fill="none" fill-rule="evenodd"><g id="006---Oil-Drilling" fill="rgb(0,0,0)" fill-rule="nonzero"><path id="Shape" d="m35.799 47h-15.606l-1.354 3h18.313z"/><path id="Shape" d="m24.708 37-1.354 3h9.287l-1.353-3z"/><path id="Shape" d="m25.612 35h4.774l-2.386-5.289z"/><path id="Shape" d="m21.096 45h13.801l-1.353-3h-11.093z"/><path id="Shape" d="m12.259 50h4.386l6.49-14.375.014-.031 3.059-6.774c-1.3192877-.2713479-2.5604038-.8367035-3.631-1.654z"/><path id="Shape" d="m43.882 16.623c1.5426047 3.2152733 3.2943619 6.3259452 5.244 9.312.1196742.1820139.3607883.2386691.549.129.0934519-.0513563.1646671-.1353903.2-.236 2.9420029-8.5511179 1.1404719-18.02056733-4.736-24.894-.1378847-.15847334-.3725976-.18856474-.546-.07l-2.626 1.821c-.0693786.04597313-.1222776.11288507-.151.191-.7941996 2.16996108-1.2289139 4.45499783-1.287 6.765l3.347 6.974z"/><path id="Shape" d="m43.741 50-10.318-22.834c-1.0708534.8174916-2.3123399 1.3828602-3.632 1.654l5.316 11.78.006.015 4.233 9.385z"/><path id="Shape" d="m28 13c-2.8417458-.0026068-5.4025634 1.714494-6.4791146 4.34443-1.0765512 2.6299361-.4547904 5.6498095 1.5731146 7.64057.022.019.044.037.065.059 2.272064 2.1863175 5.7254187 2.5837198 8.4347063.9706422s4.0056959-4.8384323 3.1664351-7.8778236c-.8392609-3.0393914-3.6070118-5.1425182-6.7601414-5.1368186zm4.462 9.21c-.0325124.086224-.0765816.1676342-.131.242-.8787124 1.568046-2.5335398 2.5416088-4.331 2.548-.437563-.0060458-.8723771-.0702759-1.293-.191-.083588-.0143572-.1649427-.0395704-.242-.075-2.0052348-.6361444-3.4011259-2.4551201-3.4968075-4.5566651-.0956817-2.1015451 1.1291438-4.0398399 3.068276-4.8555682 1.9391323-.8157283 4.1812058-.3358423 5.6165557 1.2021489 1.43535 1.5379913 1.7594827 3.80782.8119758 5.6860844z"/><path id="Shape" d="m10 48c0-.5522847-.44771525-1-1-1h-1v-16.279l12.776-5.376c-.7322007-.983179-1.2543525-2.1064523-1.534-3.3l-12.665 6.883c-.38015526.2064646-.60399775.6165816-.572 1.048 0 .009-.005.016-.005.024v17h-1c-.55228475 0-1 .4477153-1 1v2h6z"/><path id="Shape" d="m56 52h-10.707-.002-.003-6.585-.002-.003-21.406-.003-.002-6.287-.288-.003-.002-7.707-3v4h56.001z"/><circle id="Oval" cx="28" cy="20" r="3"/><path id="Shape" d="m41.634 16.565-2.55-5.314-4.615 2.507c1.2749143 1.3192351 2.1146566 2.9976727 2.406 4.809z"/><path id="Shape" d="m47.561 31.713c-.707.932-3.561 5.169-3.561 7.358 0 2.7614237 2.2385763 5 5 5s5-2.2385763 5-5c0-2.189-2.854-6.426-3.561-7.357-.3537314-.4304975-.8815799-.6800702-1.4387638-.6802638s-1.0852057.2490122-1.4392362.6792638z"/></g></g></svg>