<?xml version="1.0" encoding="utf-8"?>
<!-- Generator: Adobe Illustrator 22.1.0, SVG Export Plug-In . SVG Version: 6.00 Build 0)  -->
<svg version="1.1" id="Capa_1" xmlns="http://www.w3.org/2000/svg" xmlns:xlink="http://www.w3.org/1999/xlink" x="0px" y="0px"
	 viewBox="0 0 512.3 512.3" style="enable-background:new 0 0 512.3 512.3;" xml:space="preserve">
<style type="text/css">
	.st0{fill:#FFCA5C;}
	.st1{fill:#E1B382;}
	.st2{fill:#C89666;}
	.st3{fill:#F7B64C;}
	.st4{fill:#CED6E0;}
	.st5{fill:#415A6B;}
	.st6{fill:#FFCA4B;}
	.st7{fill:#FFD15C;}
	.st8{fill:#E8EAE9;}
	.st9{fill:#344A5E;}
</style>
<g>
	<path class="st0" d="M391.4,112.3c0,0-2.1,8.5-3.2,13.9c-1.1,6.4-4.3,25.6-16,35.2l-13.9,33.1L321,183.8c0,0,8.5-41.6,9.6-48
		c1.1-6.4-2.1-21.3-1.1-37.3C330.6,83.5,387.1,88.9,391.4,112.3z"/>
	<path class="st0" d="M391.4,112.3c0,0-2.1,8.5-3.2,13.9c-1.1,6.4-4.3,25.6-16,35.2v38.4c-19.2,60.8-69.3,44.8-50.1-16
		c0,0,8.5-41.6,9.6-48c1.1-6.4-2.1-21.3-1.1-37.3C330.6,83.5,387.1,88.9,391.4,112.3z"/>
</g>
<path class="st1" d="M330.6,96.3l-8.5-9.6c0,0,7.5-29.9,32-33.1s45.9,13.9,44.8,40.5c0,0,2.1,6.4-1.1,10.7S344.5,109.1,330.6,96.3z"
	/>
<path class="st2" d="M322.1,86.7c0,0,5.3,5.3,12.8,7.5s49.1,4.3,57.6,6.4c8.5,2.1,5.3-4.3,6.4-7.5c0,0,3.2,12.8,3.2,17.1
	s-3.2,4.3-6.4,4.3c-3.2,0-38.4-3.2-51.2-6.4c-12.8-3.2-13.9-2.1-17.1-3.2c-4.3-1.1-8.5-7.5-8.5-10.7
	C317.8,92.1,322.1,86.7,322.1,86.7z"/>
<path class="st3" d="M371.1,162.5c0,0-5.3,5.3-16,4.3s-23.5-17.1-25.6-29.9c0,0-2.1,17.1,13.9,36.3c5.3,6.4,11.7,10.7,17.1,13.9
	L371.1,162.5z"/>
<path class="st4" d="M343.4,171c0,0,9.6,14.9,6.4,28.8c0,0,3.2-12.8,3.2-18.1c0-5.3,8.5-14.9,8.5-14.9l12.8,22.4l-29.9,100.3
	l-36.3-8.5l8.5-110.9L343.4,171z"/>
<path class="st5" d="M289,511.3c1.1-6.4,7.5-27.7,11.7-39.5c5.3-12.8,12.8-30.9,12.8-30.9s2.1,1.1,5.3,11.7
	c3.2,9.6,14.9,50.1,17.1,58.7h57.6c4.3-22.4,3.2-99.2,3.2-99.2L345.5,347c0,0-81.1,11.7-98.1,51.2c-16,36.3-10.7,102.4-9.6,114.1
	H289V511.3z"/>
<ellipse transform="matrix(0.9954 -9.599821e-02 9.599821e-02 0.9954 -9.6735 32.1697)" class="st6" cx="329.5" cy="116.6" rx="5.3" ry="10.7"/>
<path class="st2" d="M311.4,161.4c0,0-2.1-1.1-9.6,3.2c-8.5,4.3-23.5,5.3-27.7,5.3c-4.3,1.1-4.3,1.1-4.3,1.1s21.3,43.7,17.1,66.1
	c-4.3,22.4-46.9,137.6-52.3,151.5c-4.3,13.9-6.4,20.3-6.4,20.3s24.5,19.2,35.2,22.4c10.7,3.2,19.2,5.3,26.7-10.7s33.1-83.2,36.3-112
	c2.1-29.9-9.6-141.9-9.6-141.9L311.4,161.4z"/>
<path class="st7" d="M296.5,313.9c0,0-14.9-2.1-19.2-18.1C274.1,278.7,296.5,299,296.5,313.9z"/>
<path class="st8" d="M376.5,156.1c0,0-4.3,7.5-14.9,9.6l-1.1,25.6l16-26.7V156.1z"/>
<path class="st2" d="M420.2,427c0,0-3.2,5.3-21.3,8.5c-18.1,3.2-28.8,4.3-28.8,4.3s-17.1,3.2-21.3-8.5
	c-4.3-11.7-23.5-77.9-23.5-107.7c0-30.9,57.6-156.8,57.6-156.8s10.7,5.3,14.9,9.6s3.2,3.2,7.5,7.5s18.1,8.5,18.1,8.5
	s-18.1,10.7-26.7,35.2C387.1,251,420.2,427,420.2,427z"/>
<g>
	<path class="st1" d="M430.9,225.4c0,22.4-3.2,74.7-14.9,91.7c-5.3,7.5-8.5,12.8-11.7,16s-6.4,4.3-9.6,5.3
		c-4.3,1.1-41.6-3.2-69.3-6.4c-17.1-2.1-29.9-3.2-29.9-3.2l-2.1-41.6c0,0,22.4,1.1,40.5,1.1c8.5,0,14.9,0,18.1,0
		c9.6,0,21.3-8.5,25.6-9.6c3.2-1.1,3.2-14.9,7.5-24.5c3.2-9.6,11.7-26.7,11.7-27.7l0,0c8.5-23.5,26.7-35.2,26.7-35.2
		S430.9,201.9,430.9,225.4z"/>
	<path class="st1" d="M376.5,158.2c0,0-4.3,9.6-6.4,13.9s-13.9,26.7-17.1,33.1s-11.7,21.3-20.3,54.4c-8.5,34.1-7.5,64-7.5,64
		s9.6-44.8,25.6-73.6s37.3-59.7,37.3-59.7l-8.5-5.3l8.5-1.1c0,0,0-8.5-3.2-13.9c-3.2-5.3-6.4-7.5-7.5-9.6
		C376.5,158.2,376.5,158.2,376.5,158.2z"/>
</g>
<path class="st5" d="M329.5,142.2c0,0,3.2,20.3,13.9,28.8l-2.1,3.2l-4.3-2.1c0,0-9.6,6.4-9.6,19.2c0,0-5.3-21.3-5.3-28.8
	C322.1,156.1,326.3,145.4,329.5,142.2z"/>
<g>
	<path class="st1" d="M327.4,146.5c0,0-4.3,3.2-7.5,8.5s-8.5,6.4-8.5,6.4l-6.4,10.7l6.4,3.2l-10.7,2.1c0,0,16,75.7,20.3,94.9
		c5.3,18.1,4.3,36.3,4.3,36.3s7.5-55.5,4.3-86.4C327.4,189.1,323.1,158.2,327.4,146.5z"/>
	<path class="st1" d="M359.4,297.9c0,0-13.9,1.1-32,2.1c-20.3,1.1-44.8,1.1-59.7-1.1c-3.2-1.1-6.4-1.1-8.5-2.1
		c-22.4-8.5-18.1-42.7-18.1-42.7s14.9-58.7,20.3-70.4c5.3-11.7,9.6-11.7,9.6-11.7s21.3,43.7,17.1,66.1c-1.1,3.2-2.1,8.5-4.3,14.9
		l0,0c0,0,9.6,4.3,20.3,7.5c10.7,3.2,9.6,0,16,0c1.1,0,3.2,0,6.4,0c11.7,0,33.1,2.1,33.1,2.1C363.7,270.2,359.4,297.9,359.4,297.9z"
		/>
</g>
<path class="st7" d="M293.3,259.5c0,0-4.3-19.2-5.3-20.3c-1.1-2.1-2.1-2.1-3.2,0l-3.2-5.3c0,0-4.3-1.1-3.2,4.3c0,0-3.2-1.1-3.2,3.2
	s2.1,6.4,2.1,6.4s-3.2,1.1-1.1,8.5c2.1,7.5,2.1,9.6,2.1,9.6L293.3,259.5z"/>
<g>
	<path class="st3" d="M285.8,242.5c-1.1-2.1-1.1-3.2-1.1-3.2l0,0C284.7,239.3,284.7,240.3,285.8,242.5c0,1.1,0,2.1,1.1,3.2
		c0,1.1,1.1,2.1,1.1,3.2s0,1.1,1.1,2.1c0,1.1,1.1,1.1,1.1,1.1c0,1.1,1.1,2.1,1.1,3.2c0,0,0,1.1,1.1,1.1v-1.1l0,0
		c0-1.1-1.1-2.1-1.1-3.2c0,0,0-1.1-1.1-1.1c0-1.1,0-1.1-1.1-2.1c0-1.1-1.1-2.1-1.1-3.2C286.9,243.5,286.9,242.5,285.8,242.5z"/>
	<path class="st3" d="M279.4,237.1C279.4,237.1,279.4,238.2,279.4,237.1c1.1,1.1,1.1,2.1,2.1,3.2c0,1.1,1.1,2.1,1.1,3.2
		s0,1.1,1.1,2.1c0,1.1,0,1.1,1.1,2.1c0,1.1,1.1,2.1,1.1,3.2s1.1,2.1,1.1,3.2c1.1,2.1,1.1,3.2,1.1,3.2s-1.1-1.1-1.1-3.2
		c0-1.1-1.1-2.1-1.1-3.2s-1.1-2.1-1.1-3.2s0-1.1-1.1-2.1c0-1.1,0-1.1-1.1-2.1c0-1.1-1.1-2.1-1.1-3.2
		C279.4,238.2,279.4,237.1,279.4,237.1z"/>
	<path class="st3" d="M277.3,247.8C277.3,247.8,278.3,247.8,277.3,247.8c1.1,0,1.1,0,1.1,0h1.1l0,0l0,0l0,0v1.1c0,1.1,0,2.1,1.1,2.1
		c0,1.1,0,2.1,1.1,2.1c0,1.1,0,1.1,0,2.1s0,2.1,0,2.1s0-1.1-1.1-2.1c0-1.1,0-1.1-1.1-2.1c0-1.1,0-2.1-1.1-2.1c0-1.1,0-2.1-1.1-2.1
		V247.8L277.3,247.8L277.3,247.8L277.3,247.8C279.4,247.8,278.3,247.8,277.3,247.8C278.3,247.8,277.3,247.8,277.3,247.8z"/>
	<path class="st3" d="M414.9,312.9c0,0,0-1.1-2.1-3.2c-2.1-1.1-10.7-6.4-13.9-9.6s-8.5-7.5-11.7-9.6s-5.3-1.1-10.7-1.1
		c-1.1,0-2.1,0-3.2,0v16h5.3c1.1-1.1,1.1-1.1,2.1-2.1c2.1-1.1,6.4,0,7.5,0c0,0,14.9,8.5,17.1,8.5c0,0,8.5,7.5,13.9,3.2L414.9,312.9z
		"/>
</g>
<path class="st5" d="M372.2,353.4l83.2-16c0,0,58.7-22.4,43.7-89.6l-117.3,66.1l-107.7,18.1l-3.2,48L372.2,353.4z"/>
<path class="st7" d="M327.4,291.5c0,0,23.5,12.8,27.7,14.9c4.3,2.1,9.6,4.3,17.1,4.3c7.5,0,19.2,4.3,22.4,5.3
	c4.3,1.1,7.5-2.1,4.3-5.3c-3.2-4.3-7.5-5.3-7.5-5.3l-12.8-3.2c0,0,3.2-3.2,5.3-4.3s6.4,0,7.5,0c0,0,11.7,8.5,16,10.7
	c0,0,8.5,10.7,14.9,3.2l-4.3-3.2c0,0-1.1-1.1-3.2-2.1c-2.1-1.1-9.6-7.5-13.9-10.7c-3.2-3.2-8.5-8.5-11.7-10.7
	c-3.2-2.1-4.3-1.1-10.7-1.1c-5.3,0-17.1,0-21.3-1.1c-4.3-1.1-17.1-5.3-17.1-5.3l-16,3.2L327.4,291.5z"/>
<g>
	<path class="st5" d="M133.3,511.3l4.3-14.9c0,6.4,1.1,11.7,1.1,14.9h82.1c1.1-4.3,2.1-16,0-33.1c-3.2-22.4-22.4-76.8-22.4-76.8
		l3.2-21.3l-70.4,2.1c0,0-72.5,23.5-80,54.4c-6.4,27.7-1.1,67.2,0,75.7h82.1L133.3,511.3L133.3,511.3z"/>
	<path class="st5" d="M133.3,511.3l4.3-14.9c0,6.4,1.1,11.7,1.1,14.9h82.1c1.1-4.3,2.1-16,0-33.1c-3.2-22.4-24.5-103.5-24.5-103.5
		l-65.1,6.4c0,0-72.5,23.5-80,54.4c-6.4,27.7-1.1,67.2,0,75.7L133.3,511.3L133.3,511.3z"/>
</g>
<g>
	<path class="st1" d="M183.4,149.7c0,0,11.7,10.7,16,21.3c4.3,10.7,3.2,16,5.3,18.1c2.1,3.2,5.3,4.3,6.4,7.5
		c1.1,3.2,14.9,24.5,14.9,24.5s12.8,5.3,14.9,9.6s2.1,6.4,2.1,6.4s3.2-1.1,6.4,1.1c3.2,2.1,5.3,2.1,8.5,4.3c4.3,1.1,4.3,0,5.3,3.2
		c2.1,2.1,30.9,16,40.5,19.2c9.6,3.2,37.3,12.8,37.3,12.8s-12.8,2.1-9.6,44.8c0,0-17.1-6.4-32-12.8c-16-6.4-30.9-8.5-40.5-13.9
		c-8.5-5.3-17.1-9.6-32-14.9c-13.9-5.3-23.5-11.7-23.5-11.7S179.1,155,183.4,149.7z"/>
	<path class="st1" d="M211.1,423.8l-2.1-1.1c-6.4-25.6-12.8-49.1-12.8-49.1h-4.3c6.4-24.5,4.3-70.4,0-91.7
		c-6.4-40.5-13.9-83.2-24.5-101.3c-10.7-18.1-22.4-39.5-22.4-39.5s28.8,0,38.4,7.5c0,0,12.8,13.9,18.1,37.3
		c5.3,22.4,5.3,72.5,5.3,80s2.1,61.9,5.3,76.8c2.1,11.7,6.4,54.4,8.5,73.6C220.7,421.7,216.5,424.9,211.1,423.8z"/>
</g>
<path class="st0" d="M200.5,79.3c0,0-5.3,8.5-6.4,9.6c0,0,0,2.1,2.1,6.4s4.3,9.6,4.3,9.6s1.1,4.3-3.2,5.3c-4.3,1.1-6.4,3.2-6.4,4.3
	s3.2,4.3,0,6.4c0,0,2.1,2.1,0,5.3c-2.1,3.2-6.4,4.3-6.4,9.6c-1.1,4.3-2.1,10.7-16,9.6c-13.9-1.1-18.1,1.1-20.3,5.3
	s-5.3,19.2-1.1,35.2s4.3,16,4.3,16l-56.5-66.1c0,0,10.7-13.9,12.8-25.6s8.5-54.4,8.5-54.4L200.5,79.3z"/>
<path class="st4" d="M181.3,221.1c-1.1-2.1,0-5.3,0-7.5c-7.5-14.9-13.9-28.8-17.1-44.8c0-1.1,0-1.1,0-2.1l-6.4-7.5L145,178.5
	c0,0-2.1-4.3-7.5-6.4c-4.3-2.1-30.9-22.4-30.9-22.4l-19.2,1.1l40.5,236.8c0,0,0,0,29.9,0s40.5-9.6,40.5-9.6S199.4,286.2,181.3,221.1
	z"/>
<path class="st5" d="M212.2,342.7c0,0-11.7-52.3-19.2-69.3c-7.5-18.1-18.1-70.4-24.5-82.1s-20.3-35.2-20.3-35.2l2.1-8.5
	c1.1,0,2.1-1.1,3.2-1.1c6.4,12.8,32,61.9,43.7,107.7C211.1,305.4,212.2,342.7,212.2,342.7z"/>
<path class="st2" d="M90.6,132.6c0,0-6.4,6.4-14.9,10.7s-11.7,3.2-19.2,7.5s-30.9,19.2-36.3,30.9c0,0,10.7-13.9,23.5-8.5
	c13.9,5.3,37.3,57.6,39.5,73.6c2.1,16-42.7,128-54.4,165.3s-8.5,65.1,3.2,72.5s61.9,43.7,89.6,12.8s37.3-154.7,37.3-154.7
	s2.1-55.5-13.9-90.7S90.6,132.6,90.6,132.6z"/>
<path class="st8" d="M93.8,128.3l6.4-5.3c0,0,7.5,19.2,16,27.7c8.5,8.5,22.4,20.3,22.4,20.3s-5.3,1.1-10.7-1.1l-10.7,11.7
	C117.3,181.7,92.7,130.5,93.8,128.3z"/>
<path class="st9" d="M104.5,114.5c0,0,13.9-5.3,22.4-24.5c7.5-19.2,19.2-8.5,22.4-5.3c3.2,4.3,4.3,14.9,2.1,20.3h8.5
	c0,0,0-22.4,7.5-27.7s32,5.3,32,5.3s8.5-3.2,5.3-10.7c-3.2-7.5-76.8-34.1-86.4-29.9c-9.6,5.3-21.3,14.9-19.2,23.5s6.4,25.6,6.4,34.1
	C105.5,109.1,103.4,112.3,104.5,114.5z"/>
<ellipse transform="matrix(0.9994 -3.380096e-02 3.380096e-02 0.9994 -2.923 4.7713)" class="st7" cx="139.7" cy="88.8" rx="10.7" ry="16"/>
<path class="st1" d="M88.5,51.5l-1.1-5.3c0,0,7.5-41.6,50.1-45.9s67.2,34.1,67.2,61.9c0,0-4.3,7.5-4.3,8.5
	C199.4,70.7,123.7,79.3,88.5,51.5z"/>
<path class="st2" d="M87.4,46.2c0,0,54.4,22.4,96,20.3c0,0,17.1,0,21.3-5.3c0,0-1.1,2.1,0,5.3c1.1,3.2,16,11.7,16,13.9
	c0,3.2-6.4,7.5-18.1,4.3c-11.7-3.2-25.6-2.1-37.3-4.3c-10.7-2.1-55.5-9.6-77.9-19.2c-3.2,0-4.3-4.3-3.2-6.4
	C85.3,51.5,86.3,49.4,87.4,46.2z"/>
<path class="st5" d="M154.6,285.1c-6.4-19.2-19.2-71.5-29.9-100.3s-24.5-46.9-24.5-52.3c-1.1-5.3,3.2-16,3.2-16s-11.7,14.9-16,19.2
	c0,0,0,0,0,1.1c-2.1,3.2-3.2,6.4-2.1,10.7c2.1,6.4,5.3,12.8,5.3,12.8l14.9,8.5l-9.6,8.5c0,0,1.1,1.1,13.9,17.1s34.1,69.3,42.7,88.5
	c8.5,19.2,7.5,59.7,7.5,59.7S161,304.3,154.6,285.1z"/>
<path id="SVGCleanerId_0" class="st8" d="M152.5,146.5c0,0,9.6,16,9.6,19.2s-7.5,8.5-7.5,8.5s-5.3,4.3-6.4,9.6
	c-1.1,5.3,1.1,16,1.1,16c-2.1-9.6-4.3-16-5.3-24.5C145,175.3,141.8,149.7,152.5,146.5z"/>
<g>
	<path id="SVGCleanerId_0_1_" class="st8" d="M152.5,146.5c0,0,9.6,16,9.6,19.2s-7.5,8.5-7.5,8.5s-5.3,4.3-6.4,9.6
		c-1.1,5.3,1.1,16,1.1,16c-2.1-9.6-4.3-16-5.3-24.5C145,175.3,141.8,149.7,152.5,146.5z"/>
</g>
<path class="st3" d="M158.9,145.4c0,0-18.1-9.6-24.5-28.8c0,0,2.1,19.2,13.9,34.1v-1.1C149.3,147.5,151.4,146.5,158.9,145.4
	L158.9,145.4z"/>
<path class="st8" d="M71.4,448.3l119.5-27.7l144-129.1c0,0,51.2,61.9,120.5,45.9L146.1,475C146.1,475,107.7,485.7,71.4,448.3z"/>
<path class="st7" d="M129,373.7l19.2,11.7c0,0,8.5,2.1,14.9,4.3c4.3,1.1,9.6,5.3,12.8,7.5c1.1,1.1,2.1,2.1,2.1,4.3l1.1,6.4
	c0,0,9.6,7.5,12.8,10.7c3.2,3.2,7.5,3.2,6.4,8.5c0,0,2.1,1.1,2.1,4.3s-4.3,5.3-4.3,5.3s-2.1,3.2-6.4,4.3s-13.9,2.1-13.9,2.1
	s-3.2,2.1-9.6,3.2c-6.4,1.1-12.8-1.1-18.1-2.1c-6.4-1.1-13.9-4.3-14.9-7.5c-1.1-3.2-4.3-7.5-5.3-10.7c-1.1-3.2-1.1-7.5-1.1-7.5
	s-4.3-5.3-7.5-7.5c-3.2-2.1-23.5-17.1-23.5-17.1S117.3,365.1,129,373.7z"/>
<g>
	<path class="st3" d="M199.4,428.1c0,0-1.1,2.1-2.1,3.2c-1.1,1.1-4.3,2.1-6.4,1.1c-2.1-1.1-10.7-6.4-13.9-7.5
		c-3.2-2.1-7.5-6.4-10.7-7.5c-2.1-2.1-6.4-3.2-6.4-3.2s2.1,3.2,4.3,4.3c2.1,1.1,7.5,3.2,10.7,5.3s8.5,5.3,10.7,6.4
		c2.1,1.1,5.3,3.2,8.5,3.2C197.3,433.4,198.3,430.2,199.4,428.1z"/>
	<path class="st3" d="M197.3,437.7c0,0-1.1,1.1-5.3,2.1c-3.2,1.1-9.6,0-11.7,0s-4.3,1.1-7.5-1.1c-3.2-1.1-13.9-8.5-14.9-9.6
		c-1.1-1.1-6.4-2.1-6.4-2.1s3.2,2.1,7.5,4.3s9.6,5.3,11.7,6.4s4.3,3.2,8.5,3.2C183.4,439.8,193,441.9,197.3,437.7z"/>
	<path class="st3" d="M168.5,444.1c-5.3-2.1-12.8-5.3-14.9-6.4c-3.2-1.1-8.5-3.2-7.5-2.1s9.6,5.3,12.8,6.4s10.7,5.3,16,3.2
		c1.1,0,1.1-1.1,1.1-1.1C175.9,445.1,173.8,446.2,168.5,444.1z"/>
	<path class="st3" d="M163.1,392.9C163.1,392.9,164.2,392.9,163.1,392.9c1.1,1.1,1.1,1.1,1.1,2.1c0,0,0,1.1,1.1,1.1
		c0,1.1,1.1,2.1,2.1,3.2l1.1,1.1c0,0,1.1,1.1,2.1,1.1c1.1,1.1,2.1,2.1,3.2,2.1c1.1,1.1,2.1,1.1,3.2,2.1c1.1,1.1,2.1,1.1,2.1,1.1
		l1.1,1.1c0,0,0,0-1.1,0s-1.1-1.1-2.1-1.1c-1.1-1.1-2.1-1.1-3.2-2.1c-1.1,0-1.1-1.1-2.1-1.1c-1.1,0-1.1-1.1-2.1-1.1
		s-1.1-1.1-2.1-1.1s-1.1-1.1-1.1-1.1c-1.1-1.1-1.1-2.1-2.1-3.2c0-1.1,0-1.1,0-1.1C164.2,393.9,164.2,393.9,163.1,392.9L163.1,392.9z
		"/>
</g>
<path class="st1" d="M135.4,376.9c0,0-11.7,2.1-19.2,14.9c-6.4,13.9-7.5,34.1-7.5,34.1s-34.1-16-40.5-23.5
	c-3.2-4.3-16-17.1-25.6-29.9c-7.5-9.6-14.9-19.2-17.1-24.5c-4.3-11.7-4.3-38.4-3.2-43.7c1.1-4.3-7.5-34.1-10.7-44.8
	s3.2-39.5,3.2-39.5s-1.1-26.7,5.3-38.4l0,0c0,0,10.7-13.9,23.5-8.5c13.9,5.3,37.3,57.6,39.5,73.6c2.1,8.5-2.1,13.9-2.1,25.6
	s-6.4,22.4-3.2,33.1c3.2,11.7,0,17.1,3.2,22.4c2.1,4.3,18.1,20.3,26.7,25.6C115.1,358.7,135.4,376.9,135.4,376.9z"/>
</svg>
